<svg version="1.1" id="Layer_1" xmlns="http://www.w3.org/2000/svg" xmlns:xlink="http://www.w3.org/1999/xlink" x="0px" y="0px"
	 width="100%" viewBox="0 0 841 557" enable-background="new 0 0 841 557" xml:space="preserve">
<path fill="#FFFFFF" opacity="1.000000" stroke="none" 
	d="
M842.000000,173.000000 
	C842.000000,301.666656 842.000000,429.833344 842.000000,558.000000 
	C561.666687,558.000000 281.333344,558.000000 1.000000,558.000000 
	C1.000000,372.333344 1.000000,186.666672 1.000000,1.000000 
	C281.333344,1.000000 561.666687,1.000000 842.000000,1.000000 
	C842.000000,58.166668 842.000000,115.333336 842.000000,173.000000 
M508.925232,549.983521 
	C536.615906,549.933350 564.306519,549.883240 592.924072,549.983521 
	C608.542969,549.989075 624.161926,550.016357 639.780823,549.995544 
	C669.519531,549.956055 699.258179,549.889038 729.923828,549.983704 
	C759.863525,549.989685 789.803223,550.003906 819.742920,549.995605 
	C826.795776,549.993652 832.463623,545.825134 832.919739,539.153992 
	C833.650635,528.466003 833.570862,517.722595 833.984070,506.075775 
	C833.933655,482.051819 833.883179,458.027832 833.984131,433.076965 
	C833.933655,406.719482 833.883240,380.362030 833.984009,353.077545 
	C833.933716,318.721039 833.883423,284.364532 833.985596,249.080597 
	C833.934814,210.722961 833.884033,172.365341 833.984131,133.080078 
	C833.986267,95.287460 834.004944,57.494827 833.977112,19.702227 
	C833.971191,11.697094 829.244751,6.103593 821.856079,6.087799 
	C783.568359,6.005953 745.280273,6.120661 706.064819,6.030742 
	C698.425232,6.022352 690.785706,5.997149 683.146118,6.008512 
	C651.761353,6.055197 620.376648,6.113008 588.064575,6.029712 
	C573.778320,6.020793 559.492065,5.988539 545.205872,6.007926 
	C517.468201,6.045568 489.730499,6.112218 461.065369,6.029049 
	C424.708862,6.074898 388.352356,6.120747 351.068573,6.024637 
	C330.044769,6.072151 309.020935,6.119665 287.070221,6.021981 
	C272.045715,6.070282 257.021210,6.118582 241.069839,6.021742 
	C223.378708,6.070117 205.687576,6.118493 187.069611,6.021682 
	C167.378662,6.069970 147.687714,6.118258 127.069901,6.021211 
	C106.045235,6.069599 85.020569,6.117987 63.069149,6.021087 
	C49.425308,6.014390 35.780922,5.932230 22.137840,6.030786 
	C14.588126,6.085323 9.084929,11.032378 9.072511,18.211397 
	C9.005168,57.141830 9.116730,96.072571 9.020428,135.930023 
	C9.012472,205.127579 9.003685,274.325134 9.003663,343.522675 
	C9.003663,344.682800 9.110100,345.842926 9.020044,347.929779 
	C9.013936,363.746704 9.004078,379.563660 9.002427,395.380585 
	C8.997543,442.165527 8.985530,488.950470 9.002372,535.735413 
	C9.005468,544.339355 13.738129,549.927856 21.617281,549.943176 
	C56.410465,550.010803 91.204025,549.887451 126.923889,549.986694 
	C151.948273,549.935547 176.972656,549.884399 202.923584,549.986389 
	C231.614273,549.935486 260.304962,549.884644 289.922546,549.986694 
	C321.280365,549.935669 352.638214,549.884644 384.922974,549.985840 
	C410.281219,549.934875 435.639496,549.883972 461.924835,549.982910 
	C477.282684,549.933167 492.640564,549.883362 508.925232,549.983521 
z"/>
<path fill="#484D54" opacity="1.000000" stroke="none" 
	d="
M461.992828,6.166850 
	C489.730499,6.112218 517.468201,6.045568 545.205872,6.007926 
	C559.492065,5.988539 573.778320,6.020793 588.530884,6.544886 
	C589.656006,16.467539 590.081909,25.898432 591.024292,35.277428 
	C592.768677,52.637756 596.762329,69.567802 602.603699,85.963593 
	C611.563782,111.112801 624.023193,134.427628 640.328857,155.681961 
	C655.079956,174.909836 672.228088,191.675278 692.391724,204.970428 
	C706.032471,213.964584 720.443237,221.918015 735.021667,229.329926 
	C752.539978,238.236557 771.562134,243.382446 790.800232,246.677475 
	C804.920471,249.095947 819.473145,248.989319 833.833130,250.008026 
	C833.883423,284.364532 833.933716,318.721039 833.450684,353.539612 
	C818.819031,353.033752 804.705383,352.243225 790.629517,351.017639 
	C784.267578,350.463684 777.940369,349.244873 771.669250,347.973206 
	C760.876404,345.784576 750.092285,343.512573 739.397949,340.894073 
	C733.240723,339.386566 727.280884,337.084259 721.206360,335.224152 
	C715.933044,333.609344 710.345947,332.719635 705.383057,330.448547 
	C691.668823,324.172699 678.192505,317.374390 664.659302,310.707245 
	C661.306946,309.055725 658.035645,307.217194 654.835938,305.284485 
	C651.478149,303.256348 648.224487,301.051300 644.973267,298.852661 
	C640.049744,295.523041 634.992981,292.357056 630.306274,288.717834 
	C621.989868,282.260071 613.908875,275.499146 605.727356,268.867554 
	C605.599304,268.763733 605.427734,268.711395 605.306030,268.602142 
	C598.191345,262.212219 590.573242,256.289154 584.093445,249.309341 
	C575.571716,240.129913 567.708984,230.303116 560.006348,220.409439 
	C553.342346,211.849869 547.227966,202.856827 541.010803,193.957489 
	C538.288025,190.060013 535.825684,185.971008 533.404724,181.874649 
	C530.514893,176.984985 527.897644,171.933289 524.976013,167.063538 
	C521.717163,161.631653 518.249023,156.325317 514.907349,150.589996 
	C516.290955,146.643158 517.643799,143.072433 518.986145,139.497757 
	C521.013489,134.098953 520.215942,133.211319 514.415344,133.387482 
	C504.279694,133.695297 494.136810,133.762772 483.952820,133.559875 
	C469.311829,92.106216 461.167725,49.910290 461.992828,6.166850 
z"/>
<path fill="#2C323B" opacity="1.000000" stroke="none" 
	d="
M288.995667,549.833740 
	C260.304962,549.884644 231.614273,549.935486 202.417816,549.571899 
	C195.974594,541.839294 189.903152,534.624939 184.132278,527.177734 
	C176.229111,516.978882 168.352097,506.748077 160.832733,496.266357 
	C151.470230,483.215393 142.132584,470.121094 133.432343,456.627625 
	C124.559822,442.866943 116.128891,428.792145 108.134750,414.502350 
	C99.241180,398.604797 90.556114,382.549469 82.708946,366.119293 
	C74.925117,349.821716 67.950714,333.110321 61.255470,316.327423 
	C53.955212,298.027924 46.674133,279.664368 40.685490,260.913269 
	C34.144230,240.431870 28.632278,219.586929 23.536282,198.689606 
	C19.349298,181.519897 16.511190,164.024094 12.883106,146.713089 
	C12.047341,142.725327 10.426321,138.902130 9.166668,135.003204 
	C9.116730,96.072571 9.005168,57.141830 9.072511,18.211397 
	C9.084929,11.032378 14.588126,6.085323 22.137840,6.030786 
	C35.780922,5.932230 49.425308,6.014390 63.535553,6.512032 
	C64.334641,10.955036 64.837044,14.901454 64.968643,18.860199 
	C65.387939,31.473587 65.590858,44.094345 66.038719,56.706528 
	C66.247345,62.581509 66.647614,68.463020 67.287888,74.305748 
	C67.988503,80.699226 69.112106,87.045197 69.971138,93.422684 
	C72.064987,108.967476 73.197998,124.708694 76.383385,140.024429 
	C81.756790,165.860413 87.518005,191.687241 94.800407,217.033997 
	C101.679672,240.977600 110.079376,264.547241 119.020119,287.816498 
	C126.646843,307.665863 135.958771,326.869720 144.602585,346.324768 
	C146.550415,350.708893 148.748306,354.987183 150.954910,359.250061 
	C155.952560,368.904877 160.741608,378.683960 166.152313,388.104126 
	C171.416718,397.269562 177.276077,406.098511 183.007767,414.989105 
	C190.778015,427.041809 198.348984,439.242828 206.610611,450.953247 
	C214.803085,462.565643 223.378632,473.953339 232.448959,484.889893 
	C245.129761,500.179626 258.393250,514.987549 271.476990,529.940735 
	C275.498169,534.536499 279.791931,538.892822 283.871643,543.438843 
	C285.693207,545.468567 287.294434,547.696045 288.995667,549.833740 
z"/>
<path fill="#30363E" opacity="1.000000" stroke="none" 
	d="
M289.459106,549.910217 
	C287.294434,547.696045 285.693207,545.468567 283.871643,543.438843 
	C279.791931,538.892822 275.498169,534.536499 271.476990,529.940735 
	C258.393250,514.987549 245.129761,500.179626 232.448959,484.889893 
	C223.378632,473.953339 214.803085,462.565643 206.610611,450.953247 
	C198.348984,439.242828 190.778015,427.041809 183.007767,414.989105 
	C177.276077,406.098511 171.416718,397.269562 166.152313,388.104126 
	C160.741608,378.683960 155.952560,368.904877 150.954910,359.250061 
	C148.748306,354.987183 146.550415,350.708893 144.602585,346.324768 
	C135.958771,326.869720 126.646843,307.665863 119.020119,287.816498 
	C110.079376,264.547241 101.679672,240.977600 94.800407,217.033997 
	C87.518005,191.687241 81.756790,165.860413 76.383385,140.024429 
	C73.197998,124.708694 72.064987,108.967476 69.971138,93.422684 
	C69.112106,87.045197 67.988503,80.699226 67.287888,74.305748 
	C66.647614,68.463020 66.247345,62.581509 66.038719,56.706528 
	C65.590858,44.094345 65.387939,31.473587 64.968643,18.860199 
	C64.837044,14.901454 64.334641,10.955036 63.998924,6.584676 
	C85.020569,6.117987 106.045235,6.069599 127.595604,6.493864 
	C128.413101,8.251738 128.935791,9.532871 128.958618,10.822853 
	C129.091614,18.335558 128.895844,25.859344 129.215500,33.362160 
	C129.623795,42.944904 130.395294,52.512707 131.051025,62.084160 
	C131.424026,67.528885 131.580948,73.010658 132.353561,78.401451 
	C134.413681,92.775658 136.524124,107.150238 139.043884,121.449020 
	C141.963898,138.019165 144.543320,154.713699 148.722107,170.981384 
	C153.980759,191.452881 159.977020,211.804703 166.995697,231.736053 
	C175.162704,254.928421 184.755859,277.619598 193.785782,300.506317 
	C196.081177,306.324097 198.587509,312.058685 200.533386,317.903625 
	C191.478653,317.975769 182.887482,317.975769 174.270813,317.975769 
	C174.270813,343.401489 174.270813,368.262573 174.270813,393.524994 
	C183.164383,393.524994 191.791473,393.384186 200.412247,393.557465 
	C213.840759,393.827332 225.621872,390.132782 235.205627,380.105804 
	C240.937073,388.003754 246.453308,395.695312 251.674316,403.582275 
	C252.478516,404.797119 251.925400,406.910461 251.616089,408.786438 
	C250.736160,416.076202 250.240128,423.187836 249.747833,430.245911 
	C254.348053,430.245911 258.017181,430.245911 261.686310,430.245911 
	C261.684418,429.919159 261.682556,429.592407 261.680664,429.265656 
	C259.109436,429.097809 256.538208,428.929993 253.892090,428.615173 
	C253.688858,428.282471 253.521851,428.143036 253.236603,427.585449 
	C253.211731,421.413727 253.266479,415.706421 253.686462,410.001190 
	C255.000427,410.201080 256.425690,410.071289 256.822601,410.648560 
	C260.033905,415.318939 263.041870,420.128784 266.134125,424.881592 
	C267.455688,426.912781 268.830322,428.909454 270.519714,430.922241 
	C271.531738,430.853638 272.204865,430.784576 272.933899,431.085083 
	C273.449249,432.517365 273.700867,433.746979 274.399750,434.617523 
	C283.196869,445.575684 291.626709,456.870209 301.008514,467.307434 
	C313.981476,481.739777 327.410858,495.790710 341.165283,509.482117 
	C351.130066,519.401306 362.003937,528.402161 372.340881,537.954895 
	C376.410004,541.715271 380.121613,545.862549 383.996033,549.833618 
	C352.638214,549.884644 321.280365,549.935669 289.459106,549.910217 
M226.176498,427.289215 
	C232.418060,432.491364 238.583969,432.660950 241.858231,427.288544 
	C240.715546,427.356628 239.805130,427.241882 239.004761,427.486786 
	C234.665787,428.814392 230.227356,428.790466 228.144562,424.407715 
	C226.922318,421.835754 226.928558,417.758942 228.127304,415.165680 
	C230.102982,410.891693 234.520996,411.263184 238.629639,412.206024 
	C239.629150,412.435394 240.726089,412.240173 242.596817,412.240173 
	C237.351257,407.520020 232.195999,407.359070 227.571716,411.058624 
	C222.951096,414.755310 222.293182,420.318817 226.176498,427.289215 
z"/>
<path fill="#4F545B" opacity="1.000000" stroke="none" 
	d="
M833.909363,249.544312 
	C819.473145,248.989319 804.920471,249.095947 790.800232,246.677475 
	C771.562134,243.382446 752.539978,238.236557 735.021667,229.329926 
	C720.443237,221.918015 706.032471,213.964584 692.391724,204.970428 
	C672.228088,191.675278 655.079956,174.909836 640.328857,155.681961 
	C624.023193,134.427628 611.563782,111.112801 602.603699,85.963593 
	C596.762329,69.567802 592.768677,52.637756 591.024292,35.277428 
	C590.081909,25.898432 589.656006,16.467539 588.994507,6.613392 
	C620.376648,6.113008 651.761353,6.055197 683.146118,6.008512 
	C690.785706,5.997149 698.425232,6.022352 706.531006,6.523321 
	C707.689880,14.153697 707.990601,21.357962 709.186340,28.410473 
	C710.366882,35.373611 711.754028,42.458199 714.323914,48.988384 
	C717.313538,56.585300 721.749084,63.606266 725.447144,70.932747 
	C734.296936,88.465759 748.154114,101.302818 764.457886,111.525726 
	C772.937317,116.842583 781.925293,121.617172 791.217529,125.283272 
	C798.531128,128.168701 806.201721,130.622208 814.382324,131.035629 
	C820.899414,131.364975 827.351990,132.969345 833.833252,134.007706 
	C833.884033,172.365341 833.934814,210.722961 833.909363,249.544312 
z"/>
<path fill="#343941" opacity="1.000000" stroke="none" 
	d="
M384.459503,549.909729 
	C380.121613,545.862549 376.410004,541.715271 372.340881,537.954895 
	C362.003937,528.402161 351.130066,519.401306 341.165283,509.482117 
	C327.410858,495.790710 313.981476,481.739777 301.008514,467.307434 
	C291.626709,456.870209 283.196869,445.575684 274.399750,434.617523 
	C273.700867,433.746979 273.449249,432.517365 272.947693,430.640106 
	C273.153137,410.480804 273.153137,410.480804 270.180817,408.936859 
	C270.180817,416.415192 270.180817,423.668518 270.180817,430.921814 
	C268.830322,428.909454 267.455688,426.912781 266.134125,424.881592 
	C263.041870,420.128784 260.033905,415.318939 256.822601,410.648560 
	C256.425690,410.071289 255.000427,410.201080 253.519592,409.722198 
	C252.658325,409.163513 252.329163,408.885895 252.000000,408.608276 
	C251.925400,406.910461 252.478516,404.797119 251.674316,403.582275 
	C246.453308,395.695312 240.937073,388.003754 235.307617,379.773132 
	C236.103836,377.780029 237.177872,376.302307 238.105820,374.737976 
	C250.099213,354.519562 240.760056,327.919312 218.601807,320.385681 
	C213.082092,318.509003 206.883499,318.629150 200.996933,317.831482 
	C198.587509,312.058685 196.081177,306.324097 193.785782,300.506317 
	C184.755859,277.619598 175.162704,254.928421 166.995697,231.736053 
	C159.977020,211.804703 153.980759,191.452881 148.722107,170.981384 
	C144.543320,154.713699 141.963898,138.019165 139.043884,121.449020 
	C136.524124,107.150238 134.413681,92.775658 132.353561,78.401451 
	C131.580948,73.010658 131.424026,67.528885 131.051025,62.084160 
	C130.395294,52.512707 129.623795,42.944904 129.215500,33.362160 
	C128.895844,25.859344 129.091614,18.335558 128.958618,10.822853 
	C128.935791,9.532871 128.413101,8.251738 128.059036,6.566531 
	C147.687714,6.118258 167.378662,6.069970 187.534149,6.552140 
	C188.662933,22.653099 189.032272,38.243439 190.078033,53.788277 
	C191.038956,68.071930 191.995316,82.424713 194.269196,96.535042 
	C197.657120,117.558670 201.244003,138.640427 206.506271,159.248032 
	C212.510559,182.761520 220.009018,205.927917 227.707916,228.961121 
	C232.211716,242.435440 237.978287,255.536545 243.898224,268.475464 
	C250.298157,282.463470 257.593384,296.040100 264.361267,309.863159 
	C265.579620,312.351562 266.135406,315.164368 266.534302,317.898499 
	C261.088867,317.969635 256.106262,317.969635 250.968338,317.969635 
	C250.968338,343.213318 250.968338,368.131805 250.968338,393.538116 
	C252.985046,393.538116 254.775391,393.528229 256.565613,393.539642 
	C272.377441,393.640656 288.189270,393.745422 304.001038,394.241638 
	C306.913544,401.720032 310.966125,407.926331 317.364746,412.493042 
	C315.391205,415.041748 313.594452,417.283875 311.333740,420.104889 
	C311.038300,415.694244 310.811127,412.302490 310.515015,407.881714 
	C307.129974,412.149628 307.272980,428.200043 309.899414,430.819244 
	C311.101227,427.640472 312.309723,424.443939 313.593323,421.048798 
	C317.919647,423.966736 318.061279,429.916565 324.506775,431.280273 
	C322.449554,427.936859 320.792694,425.712921 319.657318,423.248688 
	C318.768768,421.320190 318.526520,419.093964 318.344238,417.034546 
	C323.412018,421.760895 328.420074,426.201019 332.794891,431.195740 
	C342.570038,442.356201 351.582642,454.214722 361.749817,464.992706 
	C370.945892,474.741241 381.140625,483.567932 391.118256,492.553223 
	C401.444183,501.852112 411.993408,510.905426 422.538391,519.957336 
	C426.671234,523.505005 430.952972,526.900818 435.351990,530.112244 
	C443.490631,536.053650 451.779602,541.788879 459.953583,547.682617 
	C460.522614,548.092957 460.659760,549.102234 460.997742,549.833008 
	C435.639496,549.883972 410.281219,549.934875 384.459503,549.909729 
M290.911316,431.026947 
	C292.897186,430.899078 295.027588,431.160187 296.814301,430.496307 
	C297.872833,430.102936 298.388824,428.249420 299.148804,427.052460 
	C298.741974,426.763794 298.335144,426.475159 297.928314,426.186493 
	C294.023560,428.909729 289.932312,429.291290 286.636719,425.865326 
	C284.033875,423.159637 282.844330,419.562073 285.063873,415.792572 
	C287.792084,411.159088 291.831573,411.287506 296.300659,412.614594 
	C297.160248,412.869843 298.238037,412.390411 300.454895,412.071625 
	C295.927399,408.162598 291.859161,408.256134 287.989807,409.669220 
	C283.540375,411.294067 281.199158,414.932587 281.139923,419.742828 
	C281.075470,424.974579 284.124237,428.695526 290.911316,431.026947 
z"/>
<path fill="#434850" opacity="1.000000" stroke="none" 
	d="
M514.871948,150.964325 
	C518.249023,156.325317 521.717163,161.631653 524.976013,167.063538 
	C527.897644,171.933289 530.514893,176.984985 533.404724,181.874649 
	C535.825684,185.971008 538.288025,190.060013 541.010803,193.957489 
	C547.227966,202.856827 553.342346,211.849869 560.006348,220.409439 
	C567.708984,230.303116 575.571716,240.129913 584.093445,249.309341 
	C590.573242,256.289154 598.191345,262.212219 605.306030,268.602142 
	C605.427734,268.711395 605.599304,268.763733 605.727356,268.867554 
	C613.908875,275.499146 621.989868,282.260071 630.306274,288.717834 
	C634.992981,292.357056 640.049744,295.523041 644.973267,298.852661 
	C648.224487,301.051300 651.478149,303.256348 654.835938,305.284485 
	C658.035645,307.217194 661.306946,309.055725 664.659302,310.707245 
	C678.192505,317.374390 691.668823,324.172699 705.383057,330.448547 
	C710.345947,332.719635 715.933044,333.609344 721.206360,335.224152 
	C727.280884,337.084259 733.240723,339.386566 739.397949,340.894073 
	C750.092285,343.512573 760.876404,345.784576 771.669250,347.973206 
	C777.940369,349.244873 784.267578,350.463684 790.629517,351.017639 
	C804.705383,352.243225 818.819031,353.033752 833.375061,354.003113 
	C833.883240,380.362030 833.933655,406.719482 833.450867,433.539185 
	C821.853760,433.343658 810.760559,432.995697 799.733215,431.952026 
	C784.949402,430.552887 770.054016,429.474579 755.496887,426.722870 
	C728.650085,421.648071 702.349976,414.278778 676.982361,403.951111 
	C666.876709,399.836914 656.932190,395.326843 646.797546,390.540619 
	C646.680725,371.488922 646.680725,352.893555 646.680725,333.692566 
	C654.421204,333.692566 661.634644,333.692566 668.736206,333.692566 
	C668.736206,328.147064 668.736206,323.217285 668.736206,318.298767 
	C648.062866,318.298767 627.675049,318.298767 607.277893,318.298767 
	C607.277893,323.544647 607.277893,328.466034 607.277893,333.975983 
	C614.755188,333.975983 621.989014,333.975983 629.143250,333.975983 
	C629.143250,349.712433 629.143250,364.853577 628.756958,379.992065 
	C627.721741,379.878815 626.967102,379.945526 626.439331,379.631348 
	C616.374084,373.639557 606.319824,367.628693 596.325867,361.519409 
	C595.634705,361.096893 595.434143,359.871704 595.107971,358.688110 
	C606.558594,342.075470 599.109558,322.163910 579.554688,319.221130 
	C567.367432,317.387146 554.751587,318.401489 542.000977,317.999756 
	C529.548950,305.204407 517.474487,292.497650 505.257080,279.929901 
	C502.750336,277.351257 499.708313,275.292969 496.907410,272.540497 
	C496.529907,267.194183 496.158020,262.302216 495.742859,256.841125 
	C499.527069,256.841125 503.658447,257.039581 507.761597,256.784393 
	C511.728149,256.537689 514.445129,254.382248 514.217163,250.137558 
	C513.998779,246.071594 511.517120,243.863190 507.340912,243.880646 
	C498.894989,243.915939 490.449249,243.990067 481.549469,243.975159 
	C477.728912,243.806473 474.362274,243.710831 470.995300,243.252716 
	C470.462524,241.557266 470.051849,240.158966 469.377289,238.902328 
	C465.957581,232.532059 462.469360,226.198578 459.469574,219.785004 
	C467.633301,219.534378 475.332581,219.350937 483.436035,219.227493 
	C487.721313,219.844070 488.870422,217.232162 490.027496,214.263306 
	C498.258514,193.143967 506.579559,172.059738 514.871948,150.964325 
z"/>
<path fill="#3F444C" opacity="1.000000" stroke="none" 
	d="
M595.005432,359.019775 
	C595.434143,359.871704 595.634705,361.096893 596.325867,361.519409 
	C606.319824,367.628693 616.374084,373.639557 626.439331,379.631348 
	C626.967102,379.945526 627.721741,379.878815 628.872314,380.443237 
	C629.373901,384.988800 629.373901,389.080536 629.373901,393.573517 
	C634.776184,393.573517 639.414185,393.722595 644.028198,393.456390 
	C645.034180,393.398346 645.954529,391.855804 646.914307,390.996979 
	C656.932190,395.326843 666.876709,399.836914 676.982361,403.951111 
	C702.349976,414.278778 728.650085,421.648071 755.496887,426.722870 
	C770.054016,429.474579 784.949402,430.552887 799.733215,431.952026 
	C810.760559,432.995697 821.853760,433.343658 833.375122,434.002655 
	C833.883179,458.027832 833.933655,482.051819 833.462158,506.538391 
	C828.822083,506.668365 824.708130,506.269318 820.585144,506.015930 
	C809.188416,505.315613 797.741760,505.111328 786.400208,503.906830 
	C770.817566,502.251984 755.156738,500.649261 739.808899,497.612122 
	C709.920349,491.697510 680.632996,483.548157 652.194153,472.308472 
	C627.434143,462.522797 603.496948,451.192413 580.590576,437.678864 
	C577.756226,436.006744 575.513611,433.331726 573.427368,431.055359 
	C575.853638,430.837585 577.849304,430.685913 579.844910,430.534241 
	C579.872253,429.898865 579.899597,429.263489 579.926941,428.628113 
	C576.632080,428.296509 573.337280,427.964905 570.035156,427.632568 
	C570.035156,424.994415 570.035156,422.630341 570.035156,420.582642 
	C572.563782,419.926575 574.538757,419.414154 576.513733,418.901764 
	C576.397827,418.371307 576.281921,417.840820 576.166016,417.310364 
	C574.113953,417.055267 572.061951,416.800171 569.731995,416.510529 
	C569.275269,407.835358 577.354736,414.393555 579.810852,410.010376 
	C578.903625,409.514557 577.996216,408.683502 576.992493,408.543579 
	C575.203125,408.294189 573.336121,408.630585 571.536316,408.421814 
	C567.549011,407.959259 565.820312,409.272522 566.116821,413.593079 
	C566.444702,418.370605 566.094788,423.194641 565.682617,427.965698 
	C563.805908,427.049225 562.323120,426.094025 560.759949,425.296265 
	C557.221130,423.490265 553.642761,421.761841 550.012695,419.549805 
	C549.158203,415.676392 551.421814,411.572174 547.393311,407.476898 
	C547.064636,410.517487 546.876099,412.261322 546.320190,414.003296 
	C543.288757,413.000305 540.624634,411.999176 537.884705,410.701080 
	C536.643127,410.103973 535.477478,409.803772 534.217529,409.130951 
	C532.770386,407.184509 531.487000,405.543823 530.050537,404.050354 
	C526.741699,400.610260 523.358459,397.241730 520.458618,393.718109 
	C526.144714,393.592072 531.377625,393.592072 537.132446,393.592072 
	C528.104675,367.884247 519.375671,343.027252 510.583771,317.990967 
	C505.037354,317.990967 499.709808,318.201324 494.408875,317.916718 
	C490.900391,317.728302 489.183685,318.743286 488.019592,322.284088 
	C484.394257,333.311401 480.302826,344.185455 476.021362,355.069824 
	C470.637787,350.048218 465.583069,345.116730 460.651917,340.064575 
	C459.793182,339.184753 459.455475,337.796387 459.037964,336.375183 
	C458.141022,333.894684 457.490967,331.337555 455.959869,329.524384 
	C445.301849,316.903137 431.276123,315.117554 416.010010,317.160034 
	C408.461395,305.427765 400.817963,294.158905 393.505920,282.678986 
	C391.672668,279.800720 389.776428,278.910095 386.847229,279.557709 
	C388.203430,276.010895 390.247253,272.863831 390.470367,269.592590 
	C390.753296,265.444824 389.557312,261.196198 389.467743,256.989502 
	C401.626587,256.936401 413.316711,256.884888 425.471619,256.894531 
	C435.959167,256.917236 445.981995,256.878784 456.390991,256.906799 
	C457.456604,257.806671 458.730682,258.667206 458.694183,259.467987 
	C458.613007,261.249634 457.758026,262.979431 457.424988,264.768829 
	C454.754333,279.118896 468.387360,291.374786 482.361481,286.898865 
	C489.517883,284.375824 494.166840,279.656464 496.913055,272.994812 
	C499.708313,275.292969 502.750336,277.351257 505.257080,279.929901 
	C517.474487,292.497650 529.548950,305.204407 541.979248,318.458649 
	C542.284607,343.775116 542.284607,368.494965 542.284607,393.118347 
	C548.460571,393.118347 553.836426,393.118347 559.827515,393.118347 
	C559.827515,384.892853 559.827515,377.091949 559.827515,368.260437 
	C566.816895,376.357819 572.963501,383.553772 579.220032,390.652954 
	C580.254272,391.826538 581.736206,393.336853 583.067078,393.394165 
	C589.631104,393.676819 596.214050,393.522705 603.864563,393.522705 
	C595.461121,384.280884 587.879700,375.943115 580.888184,368.254059 
	C585.711487,365.099060 590.358459,362.059418 595.005432,359.019775 
M619.016174,420.195526 
	C619.016174,416.435913 619.016174,412.676300 619.016174,408.916718 
	C616.254822,410.888184 615.331177,421.043396 616.652222,422.340729 
	C616.846375,422.531372 618.189697,421.551636 619.016174,420.195526 
M606.000122,410.869873 
	C605.606140,410.256195 605.212158,409.642517 604.818054,409.028839 
	C604.250488,409.657898 603.213501,410.272156 603.193176,410.918488 
	C603.078186,414.561340 603.148071,418.214783 603.327087,421.856171 
	C603.350037,422.323151 604.373291,422.740997 606.015503,424.033508 
	C606.015503,419.217621 606.015503,415.506256 606.000122,410.869873 
z"/>
<path fill="#3C4149" opacity="1.000000" stroke="none" 
	d="
M572.996765,431.121460 
	C575.513611,433.331726 577.756226,436.006744 580.590576,437.678864 
	C603.496948,451.192413 627.434143,462.522797 652.194153,472.308472 
	C680.632996,483.548157 709.920349,491.697510 739.808899,497.612122 
	C755.156738,500.649261 770.817566,502.251984 786.400208,503.906830 
	C797.741760,505.111328 809.188416,505.315613 820.585144,506.015930 
	C824.708130,506.269318 828.822083,506.668365 833.386963,507.001831 
	C833.570862,517.722595 833.650635,528.466003 832.919739,539.153992 
	C832.463623,545.825134 826.795776,549.993652 819.742920,549.995605 
	C789.803223,550.003906 759.863525,549.989685 729.362000,549.536743 
	C726.293945,548.592834 723.762695,548.196838 721.285767,547.581909 
	C709.126221,544.563354 696.843079,541.942993 684.864990,538.318359 
	C668.780518,533.451111 652.891724,527.919128 637.007690,522.416321 
	C629.703979,519.886108 622.511597,516.970215 615.452454,513.817810 
	C609.008423,510.940063 602.847412,507.435303 596.498413,504.336456 
	C588.400574,500.384033 580.100891,496.822784 572.146301,492.606049 
	C565.000793,488.818207 558.489075,483.765045 551.194336,480.343231 
	C536.282532,473.348358 523.913086,462.483856 509.884003,454.178253 
	C507.226013,452.604675 505.292908,449.856873 502.791412,447.959198 
	C496.076874,442.865295 488.889496,438.340302 482.521362,432.856171 
	C471.485870,423.352509 460.836456,413.391785 450.219757,403.415649 
	C446.811005,400.212585 444.015869,396.356415 441.171753,392.541565 
	C449.663544,389.227478 455.723206,383.682404 460.313385,375.902222 
	C455.850922,372.808105 451.664764,369.905518 447.503510,367.020233 
	C435.703491,380.391327 421.230682,382.831940 410.933868,373.356750 
	C401.575043,364.744629 401.169189,348.134521 410.098206,339.155212 
	C420.411011,328.784424 433.853088,330.655884 446.809570,344.402832 
	C450.808960,341.831024 454.843018,339.236969 458.877106,336.642883 
	C459.455475,337.796387 459.793182,339.184753 460.651917,340.064575 
	C465.583069,345.116730 470.637787,350.048218 475.947540,355.449707 
	C471.896851,368.374908 467.549225,380.871063 462.979126,394.006653 
	C465.591919,394.006653 467.544891,394.006226 469.497864,394.006744 
	C480.154510,394.009460 480.063110,393.974609 483.838928,384.093414 
	C484.390411,382.650238 486.248535,380.785675 487.580322,380.720703 
	C493.372437,380.438110 499.193481,380.749298 505.031982,381.211700 
	C508.364594,386.632629 511.953369,391.355103 518.506836,392.966919 
	C519.166748,393.303894 519.586060,393.574005 520.005432,393.844147 
	C523.358459,397.241730 526.741699,400.610260 530.050537,404.050354 
	C531.487000,405.543823 532.770386,407.184509 534.260437,409.551361 
	C534.397583,417.175018 534.397583,424.005646 534.397583,430.836273 
	C535.154480,430.857910 535.911316,430.879578 536.668213,430.901215 
	C539.171570,424.510651 537.027893,417.573364 537.960571,410.998016 
	C540.624634,411.999176 543.288757,413.000305 546.389282,414.466614 
	C546.825806,420.179749 546.825806,425.427734 546.825806,431.231476 
	C551.511658,430.885834 555.222839,430.612091 558.934021,430.338318 
	C558.901611,429.709503 558.869141,429.080658 558.836670,428.451843 
	C555.992188,428.200104 553.147705,427.948334 550.080444,427.676880 
	C550.080444,424.934052 550.080444,422.467957 550.080444,420.001892 
	C553.642761,421.761841 557.221130,423.490265 560.759949,425.296265 
	C562.323120,426.094025 563.805908,427.049225 565.752197,428.352234 
	C567.306946,432.876007 570.827637,430.038147 572.996765,431.121460 
M525.593933,416.667969 
	C525.593933,414.251648 525.593933,411.835327 525.593933,409.419006 
	C525.231812,409.332092 524.869690,409.245178 524.507568,409.158295 
	C521.170776,413.071594 517.834045,416.984894 514.324585,421.100677 
	C510.791046,416.827118 507.502075,412.849426 504.213135,408.871704 
	C503.805817,409.028870 503.398499,409.186066 502.991180,409.343262 
	C502.991180,415.746246 502.926910,422.150757 503.075439,428.550293 
	C503.093262,429.319916 504.264557,430.062744 504.901215,430.817993 
	C505.559418,430.065186 506.733490,429.346375 506.785736,428.553619 
	C507.001007,425.286194 506.875854,421.996307 506.875854,417.258362 
	C509.837158,420.808228 511.939331,423.328247 514.326294,426.189636 
	C516.709534,423.444641 518.966003,420.845673 521.974426,417.380676 
	C521.974426,421.935822 521.860413,425.095306 522.047119,428.236877 
	C522.099976,429.125275 523.031738,429.961456 523.560425,430.821564 
	C524.234802,429.916473 525.426819,429.046478 525.491028,428.099976 
	C525.727234,424.617615 525.589417,421.109833 525.593933,416.667969 
M484.416504,430.560730 
	C486.066498,430.711365 487.958801,431.444214 489.311676,430.881073 
	C491.539612,429.953674 494.345886,428.574493 495.148010,426.651489 
	C495.778046,425.140961 494.142212,422.215210 492.788635,420.484741 
	C491.535828,418.883057 489.191254,418.184906 487.578125,416.797455 
	C486.563202,415.924500 486.009766,414.514954 485.249298,413.346100 
	C486.569061,412.847473 487.855316,412.159851 489.220581,411.917877 
	C490.106323,411.760895 491.105835,412.390228 492.057251,412.400757 
	C492.558472,412.406281 493.312134,411.945190 493.501068,411.502441 
	C493.687805,411.064789 493.313049,409.886200 493.174255,409.884521 
	C490.029877,409.846222 486.511841,409.062714 483.839386,410.216003 
	C480.957336,411.459717 481.484711,415.926117 484.334320,418.273956 
	C485.731659,419.425201 487.656403,419.992432 488.900696,421.258240 
	C490.256714,422.637665 491.101013,424.520172 492.168427,426.183319 
	C490.101257,426.702301 488.057526,427.386810 485.958954,427.683594 
	C484.491211,427.891235 482.948547,427.568848 481.439331,427.483185 
	C481.376648,427.915833 481.313965,428.348480 481.251282,428.781158 
	C482.076111,429.245178 482.900970,429.709198 484.416504,430.560730 
z"/>
<path fill="#292F37" opacity="1.000000" stroke="none" 
	d="
M9.093548,135.466614 
	C10.426321,138.902130 12.047341,142.725327 12.883106,146.713089 
	C16.511190,164.024094 19.349298,181.519897 23.536282,198.689606 
	C28.632278,219.586929 34.144230,240.431870 40.685490,260.913269 
	C46.674133,279.664368 53.955212,298.027924 61.255470,316.327423 
	C67.950714,333.110321 74.925117,349.821716 82.708946,366.119293 
	C90.556114,382.549469 99.241180,398.604797 108.134750,414.502350 
	C116.128891,428.792145 124.559822,442.866943 133.432343,456.627625 
	C142.132584,470.121094 151.470230,483.215393 160.832733,496.266357 
	C168.352097,506.748077 176.229111,516.978882 184.132278,527.177734 
	C189.903152,534.624939 195.974594,541.839294 201.954529,549.495361 
	C176.972656,549.884399 151.948273,549.935547 126.455132,549.547119 
	C123.365196,545.154785 120.803032,541.161377 118.111870,537.256958 
	C109.766090,525.148560 101.202003,513.186768 93.045120,500.953094 
	C85.524223,489.673309 78.030937,478.341888 71.221283,466.628662 
	C60.298367,447.840271 49.551678,428.926086 39.486164,409.670044 
	C31.678343,394.733154 25.079010,379.167145 17.829367,363.934601 
	C15.106073,358.212616 12.063751,352.642426 9.166870,347.003052 
	C9.110100,345.842926 9.003663,344.682800 9.003663,343.522675 
	C9.003685,274.325134 9.012472,205.127579 9.093548,135.466614 
z"/>
<path fill="#373C44" opacity="1.000000" stroke="none" 
	d="
M266.997101,317.827393 
	C266.135406,315.164368 265.579620,312.351562 264.361267,309.863159 
	C257.593384,296.040100 250.298157,282.463470 243.898224,268.475464 
	C237.978287,255.536545 232.211716,242.435440 227.707916,228.961121 
	C220.009018,205.927917 212.510559,182.761520 206.506271,159.248032 
	C201.244003,138.640427 197.657120,117.558670 194.269196,96.535042 
	C191.995316,82.424713 191.038956,68.071930 190.078033,53.788277 
	C189.032272,38.243439 188.662933,22.653099 187.997559,6.624733 
	C205.687576,6.118493 223.378708,6.070117 241.534302,6.552164 
	C242.669083,24.154428 243.129166,41.238232 244.099365,58.293015 
	C244.576874,66.687180 245.812820,75.055008 247.040985,83.385300 
	C248.486084,93.187096 249.915253,103.018028 252.023819,112.689713 
	C256.636169,133.846054 261.109558,155.061707 266.740112,175.956619 
	C270.349518,189.351212 275.567047,202.357681 280.700897,215.285080 
	C287.424896,232.216583 293.709290,249.456146 302.114014,265.554932 
	C314.226044,288.754883 327.907684,311.147491 341.293854,333.662048 
	C344.881012,339.695404 349.827515,344.920502 354.120605,350.916687 
	C351.879150,358.091400 349.667084,364.866089 347.455048,371.640808 
	C346.786102,371.622528 346.117188,371.604248 345.448273,371.585968 
	C339.587189,353.762482 333.726135,335.938995 327.900421,318.222961 
	C321.586884,318.222961 315.554779,318.222961 309.634888,318.222961 
	C317.953949,342.547180 326.213135,366.696228 334.098114,390.869080 
	C331.954773,389.502197 329.784668,388.410339 328.486603,386.668549 
	C323.171051,379.535950 318.223358,372.129883 312.934967,364.976196 
	C309.873810,360.835327 306.421814,356.983398 303.067139,352.583069 
	C302.984070,349.995941 303.585175,347.430634 299.999542,347.238220 
	C297.997833,342.530212 295.999237,338.188751 294.445923,333.720459 
	C298.471832,333.593597 302.052490,333.593597 305.523499,333.593597 
	C305.523499,327.946960 305.523499,323.069336 305.523499,317.827393 
	C292.447510,317.827393 279.722290,317.827393 266.997101,317.827393 
z"/>
<path fill="#393F47" opacity="1.000000" stroke="none" 
	d="
M354.149963,350.516663 
	C349.827515,344.920502 344.881012,339.695404 341.293854,333.662048 
	C327.907684,311.147491 314.226044,288.754883 302.114014,265.554932 
	C293.709290,249.456146 287.424896,232.216583 280.700897,215.285080 
	C275.567047,202.357681 270.349518,189.351212 266.740112,175.956619 
	C261.109558,155.061707 256.636169,133.846054 252.023819,112.689713 
	C249.915253,103.018028 248.486084,93.187096 247.040985,83.385300 
	C245.812820,75.055008 244.576874,66.687180 244.099365,58.293015 
	C243.129166,41.238232 242.669083,24.154428 241.997742,6.624735 
	C257.021210,6.118582 272.045715,6.070282 287.534546,6.551820 
	C288.394836,15.413580 288.585022,23.761808 289.243958,32.072880 
	C289.914734,40.533924 290.866699,48.982979 292.014191,57.393810 
	C294.487061,75.519356 297.156097,93.618210 299.764618,111.725143 
	C300.305939,115.482910 300.698181,119.284264 301.575653,122.966270 
	C302.865295,128.377930 304.648285,133.670441 306.007446,139.067505 
	C308.223389,147.866577 309.849548,156.836273 312.490295,165.500595 
	C315.682709,175.974838 319.549042,186.251862 323.359619,196.526718 
	C326.047028,203.773041 329.076782,210.894623 332.045074,218.033920 
	C335.645996,226.694901 339.343048,235.315948 342.708130,244.144836 
	C338.792206,246.170959 337.148346,249.580627 338.347809,253.007889 
	C340.680939,259.674255 347.294861,255.717728 352.298004,257.637756 
	C348.397400,268.472260 348.889465,278.307373 360.271301,285.186798 
	C360.844360,285.827301 361.146667,286.325806 361.575745,286.487122 
	C371.501373,290.217712 379.713165,287.333740 386.726227,279.902313 
	C389.776428,278.910095 391.672668,279.800720 393.505920,282.678986 
	C400.817963,294.158905 408.461395,305.427765 415.697083,317.307678 
	C411.280914,319.568085 406.654541,320.604828 403.108154,323.147705 
	C390.602020,332.115265 385.204132,344.686615 385.723999,359.968475 
	C381.402191,354.964142 377.432281,349.990601 373.536011,344.683594 
	C376.530426,335.765533 379.451263,327.180939 382.506042,318.202698 
	C376.045349,318.202698 370.279602,318.202698 364.946259,318.202698 
	C361.305969,329.098297 357.727966,339.807495 354.149963,350.516663 
z"/>
<path fill="#41464D" opacity="1.000000" stroke="none" 
	d="
M461.529114,6.097950 
	C461.167725,49.910290 469.311829,92.106216 483.707764,133.661621 
	C483.345306,134.206451 483.183807,134.278488 482.559723,134.260956 
	C472.732849,134.477753 463.368500,134.784164 453.539062,135.024567 
	C442.705170,135.262085 432.336395,135.565598 421.503296,135.814209 
	C410.028534,135.967514 399.018097,136.175690 387.548340,136.293564 
	C381.399658,136.240265 375.710358,136.277283 370.014587,135.882828 
	C368.351776,128.711197 366.311890,122.038445 365.112823,115.217880 
	C361.856964,96.698135 358.342346,78.189888 356.094269,59.536800 
	C353.961365,41.839142 353.302765,23.963800 351.995850,6.166595 
	C388.352356,6.120747 424.708862,6.074898 461.529114,6.097950 
z"/>
<path fill="#555A61" opacity="1.000000" stroke="none" 
	d="
M833.908691,133.543884 
	C827.351990,132.969345 820.899414,131.364975 814.382324,131.035629 
	C806.201721,130.622208 798.531128,128.168701 791.217529,125.283272 
	C781.925293,121.617172 772.937317,116.842583 764.457886,111.525726 
	C748.154114,101.302818 734.296936,88.465759 725.447144,70.932747 
	C721.749084,63.606266 717.313538,56.585300 714.323914,48.988384 
	C711.754028,42.458199 710.366882,35.373611 709.186340,28.410473 
	C707.990601,21.357962 707.689880,14.153697 706.994751,6.591384 
	C745.280273,6.120661 783.568359,6.005953 821.856079,6.087799 
	C829.244751,6.103593 833.971191,11.697094 833.977112,19.702227 
	C834.004944,57.494827 833.986267,95.287460 833.908691,133.543884 
z"/>
<path fill="#393E46" opacity="1.000000" stroke="none" 
	d="
M373.462402,345.017090 
	C377.432281,349.990601 381.402191,354.964142 385.906006,360.317657 
	C388.147827,372.695862 393.840088,382.233826 404.124023,388.782837 
	C415.699219,396.154114 428.141479,396.280640 440.940033,392.799042 
	C444.015869,396.356415 446.811005,400.212585 450.219757,403.415649 
	C460.836456,413.391785 471.485870,423.352509 482.521362,432.856171 
	C488.889496,438.340302 496.076874,442.865295 502.791412,447.959198 
	C505.292908,449.856873 507.226013,452.604675 509.884003,454.178253 
	C523.913086,462.483856 536.282532,473.348358 551.194336,480.343231 
	C558.489075,483.765045 565.000793,488.818207 572.146301,492.606049 
	C580.100891,496.822784 588.400574,500.384033 596.498413,504.336456 
	C602.847412,507.435303 609.008423,510.940063 615.452454,513.817810 
	C622.511597,516.970215 629.703979,519.886108 637.007690,522.416321 
	C652.891724,527.919128 668.780518,533.451111 684.864990,538.318359 
	C696.843079,541.942993 709.126221,544.563354 721.285767,547.581909 
	C723.762695,548.196838 726.293945,548.592834 728.898560,549.461609 
	C699.258179,549.889038 669.519531,549.956055 639.780823,549.995544 
	C624.161926,550.016357 608.542969,549.989075 592.397827,549.574768 
	C590.231934,548.103088 588.663025,546.906433 586.942017,545.997681 
	C567.600830,535.784424 547.885010,526.220398 528.987793,515.245728 
	C513.536987,506.272583 498.850037,495.922760 484.212036,485.631958 
	C473.517792,478.113678 463.189453,470.013367 453.180420,461.598724 
	C442.645630,452.742035 432.648010,443.242432 422.534180,433.895569 
	C421.612213,433.043518 421.552307,431.258575 421.395264,430.058472 
	C422.666351,430.388397 423.634216,430.566711 425.504059,430.911133 
	C423.735260,428.299561 422.550354,426.550110 421.381744,424.824677 
	C425.993347,420.537476 427.109039,416.695862 425.030121,412.598419 
	C423.101166,408.796509 417.587128,407.506317 409.719971,409.275360 
	C409.719971,412.430725 409.719971,415.717224 409.372070,418.996704 
	C407.428436,417.905457 405.521271,417.095947 404.284912,415.694611 
	C391.053711,400.698120 377.928589,385.608032 364.796509,370.180847 
	C367.699860,361.551117 370.581116,353.284088 373.462402,345.017090 
M441.868164,415.700592 
	C440.141113,410.075348 447.420624,413.320679 448.031525,409.664368 
	C442.596588,409.664368 437.463226,409.664368 430.929779,409.664368 
	C432.703979,410.953796 433.227234,411.653992 433.669403,411.606079 
	C438.199646,411.115112 438.874817,413.621704 438.592987,417.358429 
	C438.343994,420.660248 438.388184,424.007568 438.630829,427.310699 
	C438.718292,428.501617 439.759796,429.622467 440.365906,430.775299 
	C440.865326,429.554077 441.724426,428.353394 441.795532,427.107758 
	C441.993896,423.632172 441.865784,420.138000 441.868164,415.700592 
z"/>
<path fill="#3C4149" opacity="1.000000" stroke="none" 
	d="
M351.532227,6.095616 
	C353.302765,23.963800 353.961365,41.839142 356.094269,59.536800 
	C358.342346,78.189888 361.856964,96.698135 365.112823,115.217880 
	C366.311890,122.038445 368.351776,128.711197 369.627625,136.006073 
	C365.165375,136.746918 361.083618,136.933060 356.537109,137.059601 
	C355.573364,136.994843 355.054871,136.897354 354.578247,136.998077 
	C344.127563,139.206512 337.300262,135.639969 334.241974,124.993607 
	C333.265076,121.592827 330.933838,118.628548 326.351135,120.878708 
	C322.049103,122.991074 321.929749,126.060661 323.711548,129.984299 
	C327.626373,138.605026 331.340485,147.316620 335.199371,155.963074 
	C341.757629,170.657837 348.364410,185.330978 354.989502,200.382385 
	C356.891571,205.152100 358.922089,209.490570 360.584259,213.965820 
	C364.269806,223.888763 362.855469,233.941345 360.525085,243.930283 
	C354.372375,243.910156 348.685455,243.932220 342.998505,243.954285 
	C339.343048,235.315948 335.645996,226.694901 332.045074,218.033920 
	C329.076782,210.894623 326.047028,203.773041 323.359619,196.526718 
	C319.549042,186.251862 315.682709,175.974838 312.490295,165.500595 
	C309.849548,156.836273 308.223389,147.866577 306.007446,139.067505 
	C304.648285,133.670441 302.865295,128.377930 301.575653,122.966270 
	C300.698181,119.284264 300.305939,115.482910 299.764618,111.725143 
	C297.156097,93.618210 294.487061,75.519356 292.014191,57.393810 
	C290.866699,48.982979 289.914734,40.533924 289.243958,32.072880 
	C288.585022,23.761808 288.394836,15.413580 287.998016,6.624418 
	C309.020935,6.119665 330.044769,6.072151 351.532227,6.095616 
z"/>
<path fill="#252B34" opacity="1.000000" stroke="none" 
	d="
M9.093457,347.466431 
	C12.063751,352.642426 15.106073,358.212616 17.829367,363.934601 
	C25.079010,379.167145 31.678343,394.733154 39.486164,409.670044 
	C49.551678,428.926086 60.298367,447.840271 71.221283,466.628662 
	C78.030937,478.341888 85.524223,489.673309 93.045120,500.953094 
	C101.202003,513.186768 109.766090,525.148560 118.111870,537.256958 
	C120.803032,541.161377 123.365196,545.154785 125.991913,549.470337 
	C91.204025,549.887451 56.410465,550.010803 21.617281,549.943176 
	C13.738129,549.927856 9.005468,544.339355 9.002372,535.735413 
	C8.985530,488.950470 8.997543,442.165527 9.002427,395.380585 
	C9.004078,379.563660 9.013936,363.746704 9.093457,347.466431 
z"/>
<path fill="#373C44" opacity="1.000000" stroke="none" 
	d="
M364.774384,370.543610 
	C377.928589,385.608032 391.053711,400.698120 404.284912,415.694611 
	C405.521271,417.095947 407.428436,417.905457 409.441467,419.453644 
	C409.858795,423.532654 409.858795,427.147736 409.858795,430.762848 
	C410.547455,430.834869 411.236115,430.906891 411.924774,430.978912 
	C412.253265,429.818024 412.321899,428.472595 412.980042,427.545837 
	C413.702881,426.527985 414.968719,425.895691 416.004272,425.463318 
	C417.704163,427.199493 419.397705,428.567749 421.078796,429.938599 
	C421.066315,429.941132 421.092072,429.906860 421.092072,429.906860 
	C421.552307,431.258575 421.612213,433.043518 422.534180,433.895569 
	C432.648010,443.242432 442.645630,452.742035 453.180420,461.598724 
	C463.189453,470.013367 473.517792,478.113678 484.212036,485.631958 
	C498.850037,495.922760 513.536987,506.272583 528.987793,515.245728 
	C547.885010,526.220398 567.600830,535.784424 586.942017,545.997681 
	C588.663025,546.906433 590.231934,548.103088 591.934326,549.499573 
	C564.306519,549.883240 536.615906,549.933350 508.416473,549.570068 
	C506.720490,548.063721 505.650970,546.795959 504.327667,545.905151 
	C492.101044,537.674255 479.507782,529.947083 467.649109,521.220215 
	C450.193573,508.374603 432.833710,495.329895 416.226501,481.422546 
	C403.128387,470.453857 391.047272,458.237732 378.887054,446.199249 
	C374.377716,441.735016 370.929840,436.198547 367.427490,431.109100 
	C370.817963,430.561798 373.778839,430.056488 376.739716,429.551178 
	C376.642700,428.839630 376.545685,428.128052 376.448669,427.416473 
	C375.318604,427.416473 374.090271,427.125610 373.075989,427.468292 
	C369.277283,428.751678 365.773407,428.613403 363.143860,425.316315 
	C360.633881,422.169037 360.340881,418.567169 362.522156,415.108826 
	C365.002502,411.176270 368.835175,411.587708 372.720184,412.290894 
	C373.856354,412.496521 375.061249,412.322510 376.234650,412.322510 
	C372.448212,408.154327 368.036835,408.132629 363.849792,409.796448 
	C358.424438,411.952423 358.324463,417.093384 357.846497,421.963348 
	C350.494507,413.626617 343.481354,405.335266 336.566498,396.962738 
	C336.025391,396.307556 336.170654,395.085480 336.462769,394.072510 
	C341.551727,394.014099 346.196655,393.730194 350.791351,394.089233 
	C354.911072,394.411194 356.922882,393.113251 358.108948,388.980103 
	C359.907349,382.713074 362.512146,376.677521 364.774384,370.543610 
M399.286682,430.048431 
	C400.157379,429.599060 401.818146,428.823669 401.786346,428.746704 
	C399.065826,422.153625 396.214478,415.614594 392.889160,407.959473 
	C389.551147,415.234497 386.817780,421.075226 384.214600,426.973450 
	C383.749725,428.026703 383.824493,429.318146 383.650116,430.499603 
	C384.784851,429.919647 386.196350,429.593597 387.003998,428.713470 
	C389.747040,425.724396 396.205872,425.979797 399.286682,430.048431 
z"/>
<path fill="#353A42" opacity="1.000000" stroke="none" 
	d="
M335.996918,394.126892 
	C336.170654,395.085480 336.025391,396.307556 336.566498,396.962738 
	C343.481354,405.335266 350.494507,413.626617 358.021637,422.252625 
	C359.860443,426.914825 362.755096,429.695465 366.997894,431.151093 
	C370.929840,436.198547 374.377716,441.735016 378.887054,446.199249 
	C391.047272,458.237732 403.128387,470.453857 416.226501,481.422546 
	C432.833710,495.329895 450.193573,508.374603 467.649109,521.220215 
	C479.507782,529.947083 492.101044,537.674255 504.327667,545.905151 
	C505.650970,546.795959 506.720490,548.063721 507.953064,549.495117 
	C492.640564,549.883362 477.282684,549.933167 461.461273,549.907959 
	C460.659760,549.102234 460.522614,548.092957 459.953583,547.682617 
	C451.779602,541.788879 443.490631,536.053650 435.351990,530.112244 
	C430.952972,526.900818 426.671234,523.505005 422.538391,519.957336 
	C411.993408,510.905426 401.444183,501.852112 391.118256,492.553223 
	C381.140625,483.567932 370.945892,474.741241 361.749817,464.992706 
	C351.582642,454.214722 342.570038,442.356201 332.794891,431.195740 
	C328.420074,426.201019 323.412018,421.760895 318.466980,416.718109 
	C319.905121,414.107330 321.567657,411.847504 323.230194,409.587677 
	C322.822357,409.212067 322.414490,408.836487 322.006622,408.460907 
	C320.518250,409.702728 319.029877,410.944580 317.541504,412.186432 
	C310.966125,407.926331 306.913544,401.720032 304.367523,394.078369 
	C305.297913,388.488556 305.861786,383.454620 306.481781,377.919678 
	C293.001190,377.919678 280.590820,377.919678 268.067017,377.919678 
	C268.067017,372.753998 268.067017,368.017365 268.067017,362.846954 
	C273.927094,362.846954 279.547913,362.846954 285.168732,362.846954 
	C290.953400,362.846954 296.738098,362.846954 303.145691,362.846954 
	C303.145691,359.236237 303.145691,356.118835 303.145691,353.001434 
	C306.421814,356.983398 309.873810,360.835327 312.934967,364.976196 
	C318.223358,372.129883 323.171051,379.535950 328.486603,386.668549 
	C329.784668,388.410339 331.954773,389.502197 334.286804,391.121979 
	C335.232086,392.276337 335.614502,393.201630 335.996918,394.126892 
z"/>
<path fill="#F8A33F" opacity="1.000000" stroke="none" 
	d="
M483.022278,134.350540 
	C483.183807,134.278488 483.345306,134.206451 483.751892,134.032684 
	C494.136810,133.762772 504.279694,133.695297 514.415344,133.387482 
	C520.215942,133.211319 521.013489,134.098953 518.986145,139.497757 
	C517.643799,143.072433 516.290955,146.643158 514.907349,150.589996 
	C506.579559,172.059738 498.258514,193.143967 490.027496,214.263306 
	C488.870422,217.232162 487.721313,219.844070 483.426086,218.746094 
	C482.655426,212.092117 482.298859,205.979523 481.960876,199.498947 
	C483.997223,193.628540 486.014954,188.126129 488.167206,182.256805 
	C485.949432,182.086746 484.479462,181.974014 483.006104,181.411118 
	C483.005951,177.104752 483.009216,173.248566 483.460297,169.295929 
	C485.901978,169.147888 487.923096,169.278351 489.880829,168.985153 
	C491.356628,168.764130 493.623932,168.378387 494.040131,167.417084 
	C496.719208,161.229111 498.985321,154.862335 501.762299,147.568542 
	C494.861664,147.568542 488.936005,147.568542 483.008240,147.132538 
	C483.011536,142.581207 483.016907,138.465881 483.022278,134.350540 
z"/>
<path fill="#FEFEFE" opacity="1.000000" stroke="none" 
	d="
M200.533386,317.903625 
	C206.883499,318.629150 213.082092,318.509003 218.601807,320.385681 
	C240.760056,327.919312 250.099213,354.519562 238.105820,374.737976 
	C237.177872,376.302307 236.103836,377.780029 234.995712,379.630676 
	C225.621872,390.132782 213.840759,393.827332 200.412247,393.557465 
	C191.791473,393.384186 183.164383,393.524994 174.270813,393.524994 
	C174.270813,368.262573 174.270813,343.401489 174.270813,317.975769 
	C182.887482,317.975769 191.478653,317.975769 200.533386,317.903625 
M215.428955,336.896393 
	C207.782318,332.218628 199.459686,334.263702 191.366211,333.878265 
	C191.366211,348.834015 191.366211,363.193237 191.366211,377.516235 
	C210.995728,379.229889 220.270615,375.405579 224.526215,364.015350 
	C228.291489,353.937469 225.143372,343.949097 215.428955,336.896393 
z"/>
<path fill="#DF4237" opacity="1.000000" stroke="none" 
	d="
M225.950272,426.985992 
	C222.293182,420.318817 222.951096,414.755310 227.571716,411.058624 
	C232.195999,407.359070 237.351257,407.520020 242.596817,412.240173 
	C240.726089,412.240173 239.629150,412.435394 238.629639,412.206024 
	C234.520996,411.263184 230.102982,410.891693 228.127304,415.165680 
	C226.928558,417.758942 226.922318,421.835754 228.144562,424.407715 
	C230.227356,428.790466 234.665787,428.814392 239.004761,427.486786 
	C239.805130,427.241882 240.715546,427.356628 241.858231,427.288544 
	C238.583969,432.660950 232.418060,432.491364 225.950272,426.985992 
z"/>
<path fill="#ED4C37" opacity="1.000000" stroke="none" 
	d="
M251.616089,408.786438 
	C252.329163,408.885895 252.658325,409.163513 253.154358,409.720154 
	C253.266479,415.706421 253.211731,421.413727 253.211288,427.790649 
	C253.415344,428.755951 253.649139,428.856567 253.966980,428.762146 
	C256.538208,428.929993 259.109436,429.097809 261.680664,429.265656 
	C261.682556,429.592407 261.684418,429.919159 261.686310,430.245911 
	C258.017181,430.245911 254.348053,430.245911 249.747833,430.245911 
	C250.240128,423.187836 250.736160,416.076202 251.616089,408.786438 
z"/>
<path fill="#DE5139" opacity="1.000000" stroke="none" 
	d="
M270.519714,430.922241 
	C270.180817,423.668518 270.180817,416.415192 270.180817,408.936859 
	C273.153137,410.480804 273.153137,410.480804 272.891846,430.270538 
	C272.204865,430.784576 271.531738,430.853638 270.519714,430.922241 
z"/>
<path fill="#343941" opacity="1.000000" stroke="none" 
	d="
M253.892090,428.615173 
	C253.649139,428.856567 253.415344,428.755951 253.290894,428.255096 
	C253.521851,428.143036 253.688858,428.282471 253.892090,428.615173 
z"/>
<path fill="#FBFBFC" opacity="1.000000" stroke="none" 
	d="
M303.067139,352.583069 
	C303.145691,356.118835 303.145691,359.236237 303.145691,362.846954 
	C296.738098,362.846954 290.953400,362.846954 285.168732,362.846954 
	C279.547913,362.846954 273.927094,362.846954 268.067017,362.846954 
	C268.067017,368.017365 268.067017,372.753998 268.067017,377.919678 
	C280.590820,377.919678 293.001190,377.919678 306.481781,377.919678 
	C305.861786,383.454620 305.297913,388.488556 304.367554,393.685791 
	C288.189270,393.745422 272.377441,393.640656 256.565613,393.539642 
	C254.775391,393.528229 252.985046,393.538116 250.968338,393.538116 
	C250.968338,368.131805 250.968338,343.213318 250.968338,317.969635 
	C256.106262,317.969635 261.088867,317.969635 266.534302,317.898499 
	C279.722290,317.827393 292.447510,317.827393 305.523499,317.827393 
	C305.523499,323.069336 305.523499,327.946960 305.523499,333.593597 
	C302.052490,333.593597 298.471832,333.593597 293.991089,333.595551 
	C284.828796,333.597504 276.566620,333.597504 268.235229,333.597504 
	C268.235229,338.566528 268.235229,343.076752 268.235229,347.604797 
	C279.100372,347.604797 289.551514,347.604797 300.002655,347.604797 
	C303.585175,347.430634 302.984070,349.995941 303.067139,352.583069 
z"/>
<path fill="#DE5139" opacity="1.000000" stroke="none" 
	d="
M317.364746,412.493042 
	C319.029877,410.944580 320.518250,409.702728 322.006622,408.460907 
	C322.414490,408.836487 322.822357,409.212067 323.230194,409.587677 
	C321.567657,411.847504 319.905121,414.107330 318.119873,416.683594 
	C318.526520,419.093964 318.768768,421.320190 319.657318,423.248688 
	C320.792694,425.712921 322.449554,427.936859 324.506775,431.280273 
	C318.061279,429.916565 317.919647,423.966736 313.593323,421.048798 
	C312.309723,424.443939 311.101227,427.640472 309.899414,430.819244 
	C307.272980,428.200043 307.129974,412.149628 310.515015,407.881714 
	C310.811127,412.302490 311.038300,415.694244 311.333740,420.104889 
	C313.594452,417.283875 315.391205,415.041748 317.364746,412.493042 
z"/>
<path fill="#DE5139" opacity="1.000000" stroke="none" 
	d="
M290.495270,430.998718 
	C284.124237,428.695526 281.075470,424.974579 281.139923,419.742828 
	C281.199158,414.932587 283.540375,411.294067 287.989807,409.669220 
	C291.859161,408.256134 295.927399,408.162598 300.454895,412.071625 
	C298.238037,412.390411 297.160248,412.869843 296.300659,412.614594 
	C291.831573,411.287506 287.792084,411.159088 285.063873,415.792572 
	C282.844330,419.562073 284.033875,423.159637 286.636719,425.865326 
	C289.932312,429.291290 294.023560,428.909729 297.928314,426.186493 
	C298.335144,426.475159 298.741974,426.763794 299.148804,427.052460 
	C298.388824,428.249420 297.872833,430.102936 296.814301,430.496307 
	C295.027588,431.160187 292.897186,430.899078 290.495270,430.998718 
z"/>
<path fill="#FBFBFB" opacity="1.000000" stroke="none" 
	d="
M595.107971,358.688080 
	C590.358459,362.059418 585.711487,365.099060 580.888184,368.254059 
	C587.879700,375.943115 595.461121,384.280884 603.864563,393.522705 
	C596.214050,393.522705 589.631104,393.676819 583.067078,393.394165 
	C581.736206,393.336853 580.254272,391.826538 579.220032,390.652954 
	C572.963501,383.553772 566.816895,376.357819 559.827515,368.260437 
	C559.827515,377.091949 559.827515,384.892853 559.827515,393.118347 
	C553.836426,393.118347 548.460571,393.118347 542.284607,393.118347 
	C542.284607,368.494965 542.284607,343.775116 542.306335,318.596436 
	C554.751587,318.401489 567.367432,317.387146 579.554688,319.221130 
	C599.109558,322.163910 606.558594,342.075470 595.107971,358.688080 
M560.124023,353.573151 
	C564.426514,353.658325 568.743835,354.006348 573.027832,353.764252 
	C578.810913,353.437439 582.755737,349.649384 583.119690,344.665100 
	C583.516418,339.231049 580.698303,334.877869 575.369873,334.266876 
	C570.213928,333.675598 564.937073,334.138763 559.564819,334.138763 
	C559.564819,340.645935 559.564819,346.749573 560.124023,353.573151 
z"/>
<path fill="#41444B" opacity="1.000000" stroke="none" 
	d="
M459.005157,219.852188 
	C462.469360,226.198578 465.957581,232.532059 469.377289,238.902328 
	C470.051849,240.158966 470.462524,241.557266 470.537231,243.344360 
	C465.386688,243.881683 460.693817,243.964905 455.536804,243.975616 
	C445.049286,243.953964 435.025909,244.004837 424.538330,243.983932 
	C412.384796,243.959137 400.695496,244.006088 388.544128,243.984070 
	C383.819885,243.915115 379.557739,243.915115 375.223145,243.915115 
	C375.223145,235.477585 375.223145,227.786301 375.223145,220.052139 
	C379.762695,219.760925 383.877045,219.496964 388.437622,219.397552 
	C399.918518,219.452866 410.953156,219.343643 422.434326,219.398102 
	C433.271027,219.453354 443.661194,219.344910 454.439941,219.386017 
	C456.220764,219.641129 457.612946,219.746658 459.005157,219.852188 
z"/>
<path fill="#F9FAFA" opacity="1.000000" stroke="none" 
	d="
M646.797485,390.540619 
	C645.954529,391.855804 645.034180,393.398346 644.028198,393.456390 
	C639.414185,393.722595 634.776184,393.573517 629.373901,393.573517 
	C629.373901,389.080536 629.373901,384.988800 629.258545,380.445862 
	C629.143250,364.853577 629.143250,349.712433 629.143250,333.975983 
	C621.989014,333.975983 614.755188,333.975983 607.277893,333.975983 
	C607.277893,328.466034 607.277893,323.544647 607.277893,318.298767 
	C627.675049,318.298767 648.062866,318.298767 668.736206,318.298767 
	C668.736206,323.217285 668.736206,328.147064 668.736206,333.692566 
	C661.634644,333.692566 654.421204,333.692566 646.680725,333.692566 
	C646.680725,352.893555 646.680725,371.488922 646.797485,390.540619 
z"/>
<path fill="#F4923E" opacity="1.000000" stroke="none" 
	d="
M459.469574,219.785004 
	C457.612946,219.746658 456.220764,219.641129 454.420410,218.982910 
	C453.985718,214.221939 453.959167,210.013641 454.079224,205.462570 
	C455.467957,198.656662 456.647675,192.180679 457.976746,185.735474 
	C458.713928,182.160583 456.476349,182.000824 454.002136,181.487488 
	C453.999298,177.332901 453.998077,173.636505 454.411316,169.876617 
	C457.079010,168.984039 460.926025,168.606583 461.310974,167.248062 
	C463.027466,161.190613 463.754669,154.852814 464.957153,147.938583 
	C460.841858,147.938583 457.422882,147.938583 454.002258,147.479858 
	C454.001801,143.044266 454.002991,139.067413 454.004181,135.090561 
	C463.368500,134.784164 472.732849,134.477753 482.559753,134.260956 
	C483.016907,138.465881 483.011536,142.581207 482.585938,147.239044 
	C480.567596,147.918915 478.969513,148.056259 477.247040,148.204300 
	C476.013306,155.327301 474.849823,162.044586 473.577148,169.392380 
	C477.423340,169.392380 480.217926,169.392380 483.012512,169.392380 
	C483.009216,173.248566 483.005951,177.104752 482.549591,181.483322 
	C479.276398,182.042145 476.433380,181.881561 473.646851,182.206268 
	C472.431396,182.347870 470.495697,183.310638 470.312012,184.196091 
	C468.850098,191.243225 467.730591,198.361389 466.507477,205.449585 
	C477.478149,207.229034 478.452637,206.849304 481.942322,199.866943 
	C482.298859,205.979523 482.655426,212.092117 483.021942,218.686096 
	C475.332581,219.350937 467.633301,219.534378 459.469574,219.785004 
z"/>
<path fill="#F5933E" opacity="1.000000" stroke="none" 
	d="
M456.000946,244.048126 
	C460.693817,243.964905 465.386688,243.881683 470.537598,243.706833 
	C474.362274,243.710831 477.728912,243.806473 481.548035,244.389740 
	C481.670837,250.570694 481.341187,256.264008 480.640839,261.826538 
	C477.791565,261.847321 474.898376,261.245575 472.931976,262.327759 
	C470.013000,263.934235 469.588715,267.061310 471.477997,270.094482 
	C473.960938,274.080658 477.381744,273.603149 481.010132,272.456665 
	C481.340332,277.544708 481.672333,282.221130 482.004333,286.897522 
	C468.387360,291.374786 454.754333,279.118896 457.424988,264.768829 
	C457.758026,262.979431 458.613007,261.249634 458.694183,259.467987 
	C458.730682,258.667206 457.456604,257.806671 456.389404,256.455505 
	C456.001373,251.974518 456.001160,248.011322 456.000946,244.048126 
z"/>
<path fill="#F7A03F" opacity="1.000000" stroke="none" 
	d="
M482.361511,286.898865 
	C481.672333,282.221130 481.340332,277.544708 481.184204,272.131622 
	C483.977234,268.148132 483.568787,265.013062 481.011536,261.957336 
	C481.341187,256.264008 481.670837,250.570694 482.001953,244.462784 
	C490.449249,243.990067 498.894989,243.915939 507.340912,243.880646 
	C511.517120,243.863190 513.998779,246.071594 514.217163,250.137558 
	C514.445129,254.382248 511.728149,256.537689 507.761597,256.784393 
	C503.658447,257.039581 499.527069,256.841125 495.742859,256.841125 
	C496.158020,262.302216 496.529907,267.194183 496.907410,272.540497 
	C494.166840,279.656464 489.517883,284.375824 482.361511,286.898865 
z"/>
<path fill="#EF5D39" opacity="1.000000" stroke="none" 
	d="
M387.991394,219.233017 
	C383.877045,219.496964 379.762695,219.760925 375.223145,220.052139 
	C375.223145,227.786301 375.223145,235.477585 375.223145,243.915115 
	C379.557739,243.915115 383.819885,243.915115 388.541931,244.442841 
	C389.000854,248.977402 388.999969,252.984238 388.999084,256.991058 
	C389.557312,261.196198 390.753296,265.444824 390.470367,269.592590 
	C390.247253,272.863831 388.203430,276.010895 386.847229,279.557709 
	C379.713165,287.333740 371.501373,290.217712 361.575745,286.487122 
	C361.146667,286.325806 360.844360,285.827301 360.433411,284.811584 
	C360.589233,282.349640 360.964600,280.562683 360.972412,278.774139 
	C361.023163,267.173767 360.993896,255.573059 360.990845,243.972458 
	C362.855469,233.941345 364.269806,223.888763 360.584259,213.965820 
	C358.922089,209.490570 356.891571,205.152100 355.390381,200.292297 
	C356.168304,198.363007 356.923309,196.897705 356.943756,195.422226 
	C357.059753,187.042816 357.000153,178.660980 357.458923,170.224518 
	C361.505371,170.169067 365.093262,170.169067 369.380829,170.169067 
	C367.472046,164.688141 365.534607,160.113144 364.325378,155.353165 
	C363.278564,151.232651 361.139832,149.457108 357.001099,149.491394 
	C357.000885,145.061111 357.001343,141.090164 357.001831,137.119202 
	C361.083618,136.933060 365.165375,136.746918 369.634094,136.437531 
	C375.710358,136.277283 381.399658,136.240265 387.546967,136.724884 
	C388.005920,141.367340 388.006866,145.488144 387.553833,149.711807 
	C383.215057,149.814651 379.330261,149.814651 374.460236,149.814651 
	C376.939087,155.618423 379.240906,160.306702 380.934753,165.205231 
	C382.188538,168.831131 384.083496,170.751587 388.006042,170.678375 
	C388.003387,174.998474 388.002991,178.872742 387.733093,182.984497 
	C388.024109,186.043793 388.584625,188.865601 388.973572,192.092346 
	C388.531769,201.409195 388.261566,210.321106 387.991394,219.233017 
M376.019592,189.464630 
	C373.495392,182.467987 370.970795,181.458786 361.640961,184.112625 
	C363.785461,189.168716 365.881226,194.176468 368.030334,199.161224 
	C371.319061,206.789261 373.021332,207.535461 381.846252,205.102417 
	C379.974121,200.122467 378.110443,195.165009 376.019592,189.464630 
M375.995300,264.419220 
	C374.153717,260.275696 370.710419,259.987640 367.267853,261.491119 
	C364.153351,262.851318 363.235809,265.904663 364.376587,269.084869 
	C365.634460,272.591644 368.578735,273.911163 371.988098,272.890442 
	C375.635345,271.798523 377.171021,269.025940 375.995300,264.419220 
z"/>
<path fill="#FCFCFC" opacity="1.000000" stroke="none" 
	d="
M520.458618,393.718109 
	C519.586060,393.574005 519.166748,393.303894 518.460327,392.581360 
	C514.529297,379.909149 514.529297,379.909149 505.004028,380.844727 
	C499.193481,380.749298 493.372437,380.438110 487.580322,380.720703 
	C486.248535,380.785675 484.390411,382.650238 483.838928,384.093414 
	C480.063110,393.974609 480.154510,394.009460 469.497864,394.006744 
	C467.544891,394.006226 465.591919,394.006653 462.979126,394.006653 
	C467.549225,380.871063 471.896851,368.374908 476.318298,355.498840 
	C480.302826,344.185455 484.394257,333.311401 488.019592,322.284088 
	C489.183685,318.743286 490.900391,317.728302 494.408875,317.916718 
	C499.709808,318.201324 505.037354,317.990967 510.583771,317.990967 
	C519.375671,343.027252 528.104675,367.884247 537.132446,393.592072 
	C531.377625,393.592072 526.144714,393.592072 520.458618,393.718109 
M504.048523,349.329437 
	C502.674774,345.279419 501.300995,341.229370 499.540619,336.039490 
	C496.055267,346.577515 493.010376,355.783813 489.915741,365.140442 
	C496.599213,365.140442 502.738922,365.140442 508.861725,365.140442 
	C508.861725,364.386902 508.945557,364.037079 508.849152,363.747192 
	C507.334045,359.190796 505.795776,354.642120 504.048523,349.329437 
z"/>
<path fill="#FCFCFC" opacity="1.000000" stroke="none" 
	d="
M441.171753,392.541565 
	C428.141479,396.280640 415.699219,396.154114 404.124023,388.782837 
	C393.840088,382.233826 388.147827,372.695862 386.257935,360.348450 
	C385.204132,344.686615 390.602020,332.115265 403.108154,323.147705 
	C406.654541,320.604828 411.280914,319.568085 415.724915,317.692993 
	C431.276123,315.117554 445.301849,316.903137 455.959869,329.524384 
	C457.490967,331.337555 458.141022,333.894684 459.037964,336.375183 
	C454.843018,339.236969 450.808960,341.831024 446.809570,344.402832 
	C433.853088,330.655884 420.411011,328.784424 410.098206,339.155212 
	C401.169189,348.134521 401.575043,364.744629 410.933868,373.356750 
	C421.230682,382.831940 435.703491,380.391327 447.503510,367.020233 
	C451.664764,369.905518 455.850922,372.808105 460.313385,375.902222 
	C455.723206,383.682404 449.663544,389.227478 441.171753,392.541565 
z"/>
<path fill="#F4703A" opacity="1.000000" stroke="none" 
	d="
M389.467773,256.989502 
	C388.999969,252.984238 389.000854,248.977402 389.003998,244.511810 
	C400.695496,244.006088 412.384796,243.959137 424.537445,244.441406 
	C425.002838,248.924881 425.004852,252.879135 425.006866,256.833374 
	C413.316711,256.884888 401.626587,256.936401 389.467773,256.989502 
z"/>
<path fill="#F6843C" opacity="1.000000" stroke="none" 
	d="
M425.471619,256.894531 
	C425.004852,252.879135 425.002838,248.924881 425.001709,244.513168 
	C435.025909,244.004837 445.049286,243.953964 455.536804,243.975616 
	C456.001160,248.011322 456.001373,251.974518 456.003235,256.389008 
	C445.981995,256.878784 435.959167,256.917236 425.471619,256.894531 
z"/>
<path fill="#DD9441" opacity="1.000000" stroke="none" 
	d="
M573.427368,431.055359 
	C570.827637,430.038147 567.306946,432.876007 566.109619,428.384979 
	C566.094788,423.194641 566.444702,418.370605 566.116821,413.593079 
	C565.820312,409.272522 567.549011,407.959259 571.536316,408.421814 
	C573.336121,408.630585 575.203125,408.294189 576.992493,408.543579 
	C577.996216,408.683502 578.903625,409.514557 579.810852,410.010376 
	C577.354736,414.393555 569.275269,407.835358 569.731995,416.510529 
	C572.061951,416.800171 574.113953,417.055267 576.166016,417.310364 
	C576.281921,417.840820 576.397827,418.371307 576.513733,418.901764 
	C574.538757,419.414154 572.563782,419.926575 570.035156,420.582642 
	C570.035156,422.630341 570.035156,424.994415 570.035156,427.632568 
	C573.337280,427.964905 576.632080,428.296509 579.926941,428.628113 
	C579.899597,429.263489 579.872253,429.898865 579.844910,430.534241 
	C577.849304,430.685913 575.853638,430.837585 573.427368,431.055359 
z"/>
<path fill="#DD9441" opacity="1.000000" stroke="none" 
	d="
M550.012695,419.549805 
	C550.080444,422.467957 550.080444,424.934052 550.080444,427.676880 
	C553.147705,427.948334 555.992188,428.200104 558.836670,428.451843 
	C558.869141,429.080658 558.901611,429.709503 558.934021,430.338318 
	C555.222839,430.612091 551.511658,430.885834 546.825806,431.231476 
	C546.825806,425.427734 546.825806,420.179749 546.756714,414.468445 
	C546.876099,412.261322 547.064636,410.517487 547.393311,407.476898 
	C551.421814,411.572174 549.158203,415.676392 550.012695,419.549805 
z"/>
<path fill="#DD9441" opacity="1.000000" stroke="none" 
	d="
M537.884705,410.701080 
	C537.027893,417.573364 539.171570,424.510651 536.668213,430.901215 
	C535.911316,430.879578 535.154480,430.857910 534.397583,430.836273 
	C534.397583,424.005646 534.397583,417.175018 534.354675,409.923981 
	C535.477478,409.803772 536.643127,410.103973 537.884705,410.701080 
z"/>
<path fill="#F8A33F" opacity="1.000000" stroke="none" 
	d="
M619.008789,420.654480 
	C618.189697,421.551636 616.846375,422.531372 616.652222,422.340729 
	C615.331177,421.043396 616.254822,410.888184 619.016174,408.916718 
	C619.016174,412.676300 619.016174,416.435913 619.008789,420.654480 
z"/>
<path fill="#F7A03F" opacity="1.000000" stroke="none" 
	d="
M606.007812,411.332367 
	C606.015503,415.506256 606.015503,419.217621 606.015503,424.033508 
	C604.373291,422.740997 603.350037,422.323151 603.327087,421.856171 
	C603.148071,418.214783 603.078186,414.561340 603.193176,410.918488 
	C603.213501,410.272156 604.250488,409.657898 604.818115,409.028870 
	C605.212158,409.642517 605.606140,410.256195 606.007812,411.332367 
z"/>
<path fill="#EC8D3E" opacity="1.000000" stroke="none" 
	d="
M525.593140,417.139801 
	C525.589417,421.109833 525.727234,424.617615 525.491028,428.099976 
	C525.426819,429.046478 524.234802,429.916473 523.560425,430.821564 
	C523.031738,429.961456 522.099976,429.125275 522.047119,428.236877 
	C521.860413,425.095306 521.974426,421.935822 521.974426,417.380676 
	C518.966003,420.845673 516.709534,423.444641 514.326294,426.189636 
	C511.939331,423.328247 509.837158,420.808228 506.875854,417.258362 
	C506.875854,421.996307 507.001007,425.286194 506.785736,428.553619 
	C506.733490,429.346375 505.559418,430.065186 504.901215,430.817993 
	C504.264557,430.062744 503.093262,429.319916 503.075439,428.550293 
	C502.926910,422.150757 502.991180,415.746246 502.991180,409.343262 
	C503.398499,409.186066 503.805817,409.028870 504.213135,408.871704 
	C507.502075,412.849426 510.791046,416.827118 514.324585,421.100677 
	C517.834045,416.984894 521.170776,413.071594 524.507568,409.158295 
	C524.869690,409.245178 525.231812,409.332092 525.593933,409.419006 
	C525.593933,411.835327 525.593933,414.251648 525.593140,417.139801 
z"/>
<path fill="#EC8D3E" opacity="1.000000" stroke="none" 
	d="
M484.071167,430.366974 
	C482.900970,429.709198 482.076111,429.245178 481.251282,428.781158 
	C481.313965,428.348480 481.376648,427.915833 481.439331,427.483185 
	C482.948547,427.568848 484.491211,427.891235 485.958954,427.683594 
	C488.057526,427.386810 490.101257,426.702301 492.168427,426.183319 
	C491.101013,424.520172 490.256714,422.637665 488.900696,421.258240 
	C487.656403,419.992432 485.731659,419.425201 484.334320,418.273956 
	C481.484711,415.926117 480.957336,411.459717 483.839386,410.216003 
	C486.511841,409.062714 490.029877,409.846222 493.174255,409.884521 
	C493.313049,409.886200 493.687805,411.064789 493.501068,411.502441 
	C493.312134,411.945190 492.558472,412.406281 492.057251,412.400757 
	C491.105835,412.390228 490.106323,411.760895 489.220581,411.917877 
	C487.855316,412.159851 486.569061,412.847473 485.249298,413.346130 
	C486.009766,414.514954 486.563202,415.924500 487.578125,416.797455 
	C489.191254,418.184906 491.535828,418.883057 492.788635,420.484741 
	C494.142212,422.215210 495.778046,425.140961 495.148010,426.651489 
	C494.345886,428.574493 491.539612,429.953674 489.311676,430.881073 
	C487.958801,431.444214 486.066498,430.711365 484.071167,430.366974 
z"/>
<path fill="#3F444C" opacity="1.000000" stroke="none" 
	d="
M505.031982,381.211670 
	C514.529297,379.909149 514.529297,379.909149 518.219727,392.514465 
	C511.953369,391.355103 508.364594,386.632629 505.031982,381.211670 
z"/>
<path fill="#FCFCFD" opacity="1.000000" stroke="none" 
	d="
M336.462769,394.072510 
	C335.614502,393.201630 335.232086,392.276337 334.661011,391.098145 
	C326.213135,366.696228 317.953949,342.547180 309.634888,318.222961 
	C315.554779,318.222961 321.586884,318.222961 327.900421,318.222961 
	C333.726135,335.938995 339.587189,353.762482 345.448273,371.585968 
	C346.117188,371.604248 346.786102,371.622528 347.455048,371.640808 
	C349.667084,364.866089 351.879150,358.091400 354.120605,350.916687 
	C357.727966,339.807495 361.305969,329.098297 364.946259,318.202698 
	C370.279602,318.202698 376.045349,318.202698 382.506042,318.202698 
	C379.451263,327.180939 376.530426,335.765533 373.535980,344.683594 
	C370.581116,353.284088 367.699860,361.551117 364.796509,370.180847 
	C362.512146,376.677521 359.907349,382.713074 358.108948,388.980103 
	C356.922882,393.113251 354.911072,394.411194 350.791351,394.089233 
	C346.196655,393.730194 341.551727,394.014099 336.462769,394.072510 
M347.041565,372.431213 
	C346.684540,372.561127 346.327545,372.691010 345.970520,372.820923 
	C346.299408,372.935455 346.628326,373.049988 347.041565,372.431213 
z"/>
<path fill="#353A42" opacity="1.000000" stroke="none" 
	d="
M299.999542,347.238220 
	C289.551514,347.604797 279.100372,347.604797 268.235229,347.604797 
	C268.235229,343.076752 268.235229,338.566528 268.235229,333.597504 
	C276.566620,333.597504 284.828796,333.597504 293.545837,333.722412 
	C295.999237,338.188751 297.997833,342.530212 299.999542,347.238220 
z"/>
<path fill="#EC5138" opacity="1.000000" stroke="none" 
	d="
M360.525085,243.930283 
	C360.993896,255.573059 361.023163,267.173767 360.972412,278.774139 
	C360.964600,280.562683 360.589233,282.349640 360.221710,284.512512 
	C348.889465,278.307373 348.397400,268.472260 352.298004,257.637756 
	C347.294861,255.717728 340.680939,259.674255 338.347809,253.007889 
	C337.148346,249.580627 338.792206,246.170959 342.708130,244.144836 
	C348.685455,243.932220 354.372375,243.910156 360.525085,243.930283 
z"/>
<path fill="#F26F3A" opacity="1.000000" stroke="none" 
	d="
M388.002594,182.747009 
	C388.002991,178.872742 388.003387,174.998474 388.463104,170.604034 
	C392.501312,170.083878 396.080231,170.083878 400.250427,170.083878 
	C399.916382,166.224869 399.719513,163.300934 399.396423,160.391022 
	C399.034912,157.134796 399.684357,152.617004 397.832886,150.981918 
	C395.765839,149.156433 391.382843,149.953384 388.007812,149.608963 
	C388.006866,145.488144 388.005920,141.367340 388.006348,136.815201 
	C399.018097,136.175690 410.028534,135.967514 421.513062,136.286789 
	C421.992767,140.835587 421.998322,144.856934 421.546265,148.946747 
	C417.817291,149.015228 414.545898,149.015228 410.671112,149.015228 
	C410.970032,153.474747 410.989929,157.118454 411.498077,160.692719 
	C412.764069,169.597366 412.853271,169.584686 421.998199,170.417099 
	C421.998962,174.594543 421.999268,178.308060 421.557556,182.092392 
	C418.851685,182.264465 416.587830,182.365723 413.658691,182.496750 
	C414.147003,188.384369 414.920685,193.756027 414.943115,199.130829 
	C414.964294,204.194382 416.470306,206.990387 422.002838,206.568542 
	C421.996643,211.093643 421.992218,215.164017 421.987793,219.234406 
	C410.953156,219.343643 399.918518,219.452866 388.437622,219.397552 
	C388.261566,210.321106 388.531769,201.409195 389.252411,192.351501 
	C390.749725,194.967041 391.746216,197.748779 392.853638,200.485626 
	C395.444000,206.887466 396.769592,207.428253 403.562744,204.993881 
	C403.315155,201.532547 403.138062,198.059326 402.806305,194.600952 
	C401.694794,183.014755 401.673615,183.018143 389.994141,182.853546 
	C389.329926,182.844193 388.666412,182.783691 388.002594,182.747009 
z"/>
<path fill="#F2813C" opacity="1.000000" stroke="none" 
	d="
M422.003906,148.878265 
	C421.998322,144.856934 421.992767,140.835587 421.977417,136.341675 
	C432.336395,135.565598 442.705170,135.262085 453.539062,135.024567 
	C454.002991,139.067413 454.001801,143.044266 453.548828,147.554153 
	C442.056152,148.396133 442.056122,148.396133 442.056366,157.285065 
	C442.056702,169.436554 442.056732,169.436554 453.996826,169.940109 
	C453.998077,173.636505 453.999298,177.332901 453.542358,181.555878 
	C452.257172,182.094910 451.430176,182.116516 450.603119,182.118439 
	C440.260132,182.142426 440.260132,182.141693 440.260010,192.705307 
	C440.259857,206.129379 440.259857,206.129379 453.932617,205.805344 
	C453.959167,210.013641 453.985718,214.221939 454.031799,218.833344 
	C443.661194,219.344910 433.271027,219.453354 422.434326,219.398102 
	C421.992218,215.164017 421.996643,211.093643 422.439484,206.502411 
	C424.473114,205.858871 426.068329,205.736176 427.787537,205.603958 
	C427.787537,197.677307 427.787537,190.077484 427.787537,182.363525 
	C425.579315,182.233063 423.789429,182.127335 421.999573,182.021591 
	C421.999268,178.308060 421.998962,174.594543 422.432190,170.351517 
	C425.255432,169.037933 429.597260,168.470917 429.712585,167.433914 
	C430.374817,161.478561 430.034882,155.411774 430.034882,148.878265 
	C426.886169,148.878265 424.445038,148.878265 422.003906,148.878265 
z"/>
<path fill="#E3723C" opacity="1.000000" stroke="none" 
	d="
M415.997955,425.095398 
	C414.968719,425.895691 413.702881,426.527985 412.980042,427.545837 
	C412.321899,428.472595 412.253265,429.818024 411.924774,430.978912 
	C411.236115,430.906891 410.547455,430.834869 409.858795,430.762848 
	C409.858795,427.147736 409.858795,423.532654 409.789368,419.460632 
	C409.719971,415.717224 409.719971,412.430725 409.719971,409.275360 
	C417.587128,407.506317 423.101166,408.796509 425.030121,412.598419 
	C427.109039,416.695862 425.993347,420.537476 421.381744,424.824677 
	C422.550354,426.550110 423.735260,428.299561 425.504059,430.911133 
	C423.634216,430.566711 422.666351,430.388397 421.395264,430.058472 
	C421.092072,429.906860 421.066315,429.941132 420.964844,429.620239 
	C419.241577,427.898010 417.619751,426.496704 415.997955,425.095398 
M422.281616,414.236237 
	C419.494385,413.167511 416.707123,412.098755 413.202148,410.754822 
	C413.202148,415.419159 413.202148,418.472992 413.202148,421.483582 
	C421.194092,422.567749 422.961456,421.298737 422.281616,414.236237 
z"/>
<path fill="#E3723C" opacity="1.000000" stroke="none" 
	d="
M441.867371,416.175873 
	C441.865784,420.138000 441.993896,423.632172 441.795532,427.107758 
	C441.724426,428.353394 440.865326,429.554077 440.365906,430.775299 
	C439.759796,429.622467 438.718292,428.501617 438.630829,427.310699 
	C438.388184,424.007568 438.343994,420.660248 438.592987,417.358429 
	C438.874817,413.621704 438.199646,411.115112 433.669403,411.606079 
	C433.227234,411.653992 432.703979,410.953796 430.929779,409.664368 
	C437.463226,409.664368 442.596588,409.664368 448.031525,409.664368 
	C447.420624,413.320679 440.141113,410.075348 441.867371,416.175873 
z"/>
<path fill="#ED4C37" opacity="1.000000" stroke="none" 
	d="
M357.000336,170.279968 
	C357.000153,178.660980 357.059753,187.042816 356.943756,195.422226 
	C356.923309,196.897705 356.168304,198.363007 355.351654,199.923096 
	C348.364410,185.330978 341.757629,170.657837 335.199371,155.963074 
	C331.340485,147.316620 327.626373,138.605026 323.711548,129.984299 
	C321.929749,126.060661 322.049103,122.991074 326.351135,120.878708 
	C330.933838,118.628548 333.265076,121.592827 334.241974,124.993607 
	C337.300262,135.639969 344.127563,139.206512 354.578247,136.998077 
	C355.054871,136.897354 355.573364,136.994843 356.537109,137.059601 
	C357.001343,141.090164 357.000885,145.061111 356.555481,149.554626 
	C353.508087,150.077194 350.905640,150.077194 346.597137,150.077194 
	C350.467804,157.593903 353.734070,163.936935 357.000336,170.279968 
z"/>
<path fill="#DE6A3B" opacity="1.000000" stroke="none" 
	d="
M399.101807,429.703491 
	C396.205872,425.979797 389.747040,425.724396 387.003998,428.713470 
	C386.196350,429.593597 384.784851,429.919647 383.650085,430.499603 
	C383.824493,429.318146 383.749725,428.026703 384.214600,426.973450 
	C386.817780,421.075226 389.551147,415.234497 392.889160,407.959473 
	C396.214478,415.614594 399.065826,422.153625 401.786346,428.746704 
	C401.818146,428.823669 400.157379,429.599060 399.101807,429.703491 
M394.632507,419.162598 
	C394.061218,418.217377 393.489929,417.272156 392.530212,415.684235 
	C391.413818,418.578064 390.559326,420.793030 389.520203,423.486572 
	C392.046814,423.486572 393.883026,423.486572 396.173309,423.486572 
	C395.652863,421.964844 395.290497,420.905334 394.632507,419.162598 
z"/>
<path fill="#DE6A3B" opacity="1.000000" stroke="none" 
	d="
M367.427490,431.109100 
	C362.755096,429.695465 359.860443,426.914825 358.385437,422.277405 
	C358.324463,417.093384 358.424438,411.952423 363.849792,409.796448 
	C368.036835,408.132629 372.448212,408.154327 376.234650,412.322510 
	C375.061249,412.322510 373.856354,412.496521 372.720184,412.290894 
	C368.835175,411.587708 365.002502,411.176270 362.522156,415.108826 
	C360.340881,418.567169 360.633881,422.169037 363.143860,425.316315 
	C365.773407,428.613403 369.277283,428.751678 373.075989,427.468292 
	C374.090271,427.125610 375.318604,427.416473 376.448669,427.416473 
	C376.545685,428.128052 376.642700,428.839630 376.739716,429.551178 
	C373.778839,430.056488 370.817963,430.561798 367.427490,431.109100 
z"/>
<path fill="#393E46" opacity="1.000000" stroke="none" 
	d="
M416.004272,425.463318 
	C417.619751,426.496704 419.241577,427.898010 420.977325,429.617676 
	C419.397705,428.567749 417.704163,427.199493 416.004272,425.463318 
z"/>
<path fill="#464A50" opacity="1.000000" stroke="none" 
	d="
M483.460297,169.295929 
	C480.217926,169.392380 477.423340,169.392380 473.577148,169.392380 
	C474.849823,162.044586 476.013306,155.327301 477.247040,148.204300 
	C478.969513,148.056259 480.567596,147.918915 482.588013,147.675049 
	C488.936005,147.568542 494.861664,147.568542 501.762299,147.568542 
	C498.985321,154.862335 496.719208,161.229111 494.040131,167.417084 
	C493.623932,168.378387 491.356628,168.764130 489.880829,168.985153 
	C487.923096,169.278351 485.901978,169.147888 483.460297,169.295929 
z"/>
<path fill="#464A50" opacity="1.000000" stroke="none" 
	d="
M481.960907,199.498947 
	C478.452637,206.849304 477.478149,207.229034 466.507477,205.449585 
	C467.730591,198.361389 468.850098,191.243225 470.312012,184.196091 
	C470.495697,183.310638 472.431396,182.347870 473.646851,182.206268 
	C476.433380,181.881561 479.276398,182.042145 482.553009,181.933502 
	C484.479462,181.974014 485.949432,182.086746 488.167206,182.256805 
	C486.014954,188.126129 483.997223,193.628540 481.960907,199.498947 
z"/>
<path fill="#333941" opacity="1.000000" stroke="none" 
	d="
M215.758789,337.070526 
	C225.143372,343.949097 228.291489,353.937469 224.526215,364.015350 
	C220.270615,375.405579 210.995728,379.229889 191.366211,377.516235 
	C191.366211,363.193237 191.366211,348.834015 191.366211,333.878265 
	C199.459686,334.263702 207.782318,332.218628 215.758789,337.070526 
z"/>
<path fill="#484D54" opacity="1.000000" stroke="none" 
	d="
M559.844421,353.213165 
	C559.564819,346.749573 559.564819,340.645935 559.564819,334.138763 
	C564.937073,334.138763 570.213928,333.675598 575.369873,334.266876 
	C580.698303,334.877869 583.516418,339.231049 583.119690,344.665100 
	C582.755737,349.649384 578.810913,353.437439 573.027832,353.764252 
	C568.743835,354.006348 564.426514,353.658325 559.844421,353.213165 
z"/>
<path fill="#494A4E" opacity="1.000000" stroke="none" 
	d="
M454.411316,169.876617 
	C442.056732,169.436554 442.056702,169.436554 442.056366,157.285065 
	C442.056122,148.396133 442.056152,148.396133 453.550476,148.012878 
	C457.422882,147.938583 460.841858,147.938583 464.957153,147.938583 
	C463.754669,154.852814 463.027466,161.190613 461.310974,167.248062 
	C460.926025,168.606583 457.079010,168.984039 454.411316,169.876617 
z"/>
<path fill="#494A4E" opacity="1.000000" stroke="none" 
	d="
M454.079224,205.462570 
	C440.259857,206.129379 440.259857,206.129379 440.260010,192.705307 
	C440.260132,182.141693 440.260132,182.142426 450.603119,182.118439 
	C451.430176,182.116516 452.257172,182.094910 453.544006,182.014069 
	C456.476349,182.000824 458.713928,182.160583 457.976746,185.735474 
	C456.647675,192.180679 455.467957,198.656662 454.079224,205.462570 
z"/>
<path fill="#45464C" opacity="1.000000" stroke="none" 
	d="
M480.640808,261.826538 
	C483.568787,265.013062 483.977234,268.148132 481.185974,271.719971 
	C477.381744,273.603149 473.960938,274.080658 471.477997,270.094482 
	C469.588715,267.061310 470.013000,263.934235 472.931976,262.327759 
	C474.898376,261.245575 477.791565,261.847321 480.640808,261.826538 
z"/>
<path fill="#41444B" opacity="1.000000" stroke="none" 
	d="
M387.553833,149.711807 
	C391.382843,149.953384 395.765839,149.156433 397.832886,150.981918 
	C399.684357,152.617004 399.034912,157.134796 399.396423,160.391022 
	C399.719513,163.300934 399.916382,166.224869 400.250427,170.083878 
	C396.080231,170.083878 392.501312,170.083878 388.465363,170.158203 
	C384.083496,170.751587 382.188538,168.831131 380.934753,165.205231 
	C379.240906,160.306702 376.939087,155.618423 374.460236,149.814651 
	C379.330261,149.814651 383.215057,149.814651 387.553833,149.711807 
z"/>
<path fill="#42434A" opacity="1.000000" stroke="none" 
	d="
M357.458923,170.224518 
	C353.734070,163.936935 350.467804,157.593903 346.597137,150.077194 
	C350.905640,150.077194 353.508087,150.077194 356.556152,150.013947 
	C361.139832,149.457108 363.278564,151.232651 364.325378,155.353165 
	C365.534607,160.113144 367.472046,164.688141 369.380829,170.169067 
	C365.093262,170.169067 361.505371,170.169067 357.458923,170.224518 
z"/>
<path fill="#45464C" opacity="1.000000" stroke="none" 
	d="
M387.733093,182.984497 
	C388.666412,182.783691 389.329926,182.844193 389.994141,182.853546 
	C401.673615,183.018143 401.694794,183.014755 402.806305,194.600952 
	C403.138062,198.059326 403.315155,201.532547 403.562744,204.993881 
	C396.769592,207.428253 395.444000,206.887466 392.853638,200.485626 
	C391.746216,197.748779 390.749725,194.967041 389.424011,191.946564 
	C388.584625,188.865601 388.024109,186.043793 387.733093,182.984497 
z"/>
<path fill="#42434A" opacity="1.000000" stroke="none" 
	d="
M376.133179,189.836090 
	C378.110443,195.165009 379.974121,200.122467 381.846252,205.102417 
	C373.021332,207.535461 371.319061,206.789261 368.030334,199.161224 
	C365.881226,194.176468 363.785461,189.168716 361.640961,184.112625 
	C370.970795,181.458786 373.495392,182.467987 376.133179,189.836090 
z"/>
<path fill="#42434A" opacity="1.000000" stroke="none" 
	d="
M376.081512,264.784485 
	C377.171021,269.025940 375.635345,271.798523 371.988098,272.890442 
	C368.578735,273.911163 365.634460,272.591644 364.376587,269.084869 
	C363.235809,265.904663 364.153351,262.851318 367.267853,261.491119 
	C370.710419,259.987640 374.153717,260.275696 376.081512,264.784485 
z"/>
<path fill="#484D54" opacity="1.000000" stroke="none" 
	d="
M504.155640,349.710541 
	C505.795776,354.642120 507.334045,359.190796 508.849152,363.747192 
	C508.945557,364.037079 508.861725,364.386902 508.861725,365.140442 
	C502.738922,365.140442 496.599213,365.140442 489.915741,365.140442 
	C493.010376,355.783813 496.055267,346.577515 499.540619,336.039490 
	C501.300995,341.229370 502.674774,345.279419 504.155640,349.710541 
z"/>
<path fill="#373C44" opacity="1.000000" stroke="none" 
	d="
M346.999390,372.797852 
	C346.628326,373.049988 346.299408,372.935455 345.970520,372.820923 
	C346.327545,372.691010 346.684540,372.561127 346.999390,372.797852 
z"/>
<path fill="#45464C" opacity="1.000000" stroke="none" 
	d="
M421.546265,148.946747 
	C424.445038,148.878265 426.886169,148.878265 430.034882,148.878265 
	C430.034882,155.411774 430.374817,161.478561 429.712585,167.433914 
	C429.597260,168.470917 425.255432,169.037933 422.431702,169.887604 
	C412.853271,169.584686 412.764069,169.597366 411.498077,160.692719 
	C410.989929,157.118454 410.970032,153.474747 410.671112,149.015228 
	C414.545898,149.015228 417.817291,149.015228 421.546265,148.946747 
z"/>
<path fill="#45464C" opacity="1.000000" stroke="none" 
	d="
M421.557556,182.092392 
	C423.789429,182.127335 425.579315,182.233063 427.787537,182.363525 
	C427.787537,190.077484 427.787537,197.677307 427.787537,205.603958 
	C426.068329,205.736176 424.473114,205.858871 422.441254,206.047699 
	C416.470306,206.990387 414.964294,204.194382 414.943115,199.130829 
	C414.920685,193.756027 414.147003,188.384369 413.658691,182.496750 
	C416.587830,182.365723 418.851685,182.264465 421.557556,182.092392 
z"/>
<path fill="#393F47" opacity="1.000000" stroke="none" 
	d="
M422.465393,414.599243 
	C422.961456,421.298737 421.194092,422.567749 413.202148,421.483582 
	C413.202148,418.472992 413.202148,415.419159 413.202148,410.754822 
	C416.707123,412.098755 419.494385,413.167511 422.465393,414.599243 
z"/>
<path fill="#42434A" opacity="1.000000" stroke="none" 
	d="
M394.780334,419.504211 
	C395.290497,420.905334 395.652863,421.964844 396.173309,423.486572 
	C393.883026,423.486572 392.046814,423.486572 389.520203,423.486572 
	C390.559326,420.793030 391.413818,418.578064 392.530212,415.684235 
	C393.489929,417.272156 394.061218,418.217377 394.780334,419.504211 
z"/>
</svg>